<svg width="278" height="200" viewBox="0 0 278 200" fill="none" xmlns="http://www.w3.org/2000/svg">
<g clip-path="url(#clip0_85_2)">
<g opacity="0.5">
<path d="M274.414 93.2407H247.557C245.577 93.2407 243.971 94.8438 243.971 96.8213V123.64C243.971 125.618 245.577 127.221 247.557 127.221H274.414C276.395 127.221 278 125.618 278 123.64V96.8213C278 94.8438 276.395 93.2407 274.414 93.2407Z" fill="#D0D2D5"/>
<path opacity="0.1" d="M256.161 103.006H265.811C265.811 103.006 273.937 110.107 265.811 117.461H256.161C256.161 117.461 248.034 110.867 256.161 103.006Z" fill="black"/>
<path d="M258.446 107.061H257.176V110.865H258.446V107.061Z" fill="#3F3D56"/>
<path d="M264.795 106.554H263.525V111.118H264.795V106.554Z" fill="#3F3D56"/>
<path d="M260.986 113.147C261.39 113.147 261.777 113.307 262.063 113.593C262.349 113.878 262.509 114.265 262.509 114.669V115.937H259.462V114.669C259.462 114.265 259.622 113.878 259.908 113.593C260.194 113.307 260.581 113.147 260.986 113.147Z" fill="#3F3D56"/>
</g>
<path d="M157.896 60.4699C158.701 60.4521 159.504 60.513 160.306 60.4699C161.04 60.4344 161.769 60.3152 162.503 60.2417C163.757 60.1174 165.022 60.1275 166.281 60.0743C167.109 60.0388 167.983 59.9577 168.653 59.4708C169.283 59.0169 169.634 58.2764 170.195 57.7388C172.48 55.5453 174.047 52.6113 176.079 50.1769C176.587 49.5581 177.117 48.9419 177.577 48.2801C178.458 47.0121 179.08 45.5743 179.7 44.1542C179.944 43.6278 180.148 43.0835 180.309 42.5262C180.424 42.0799 180.482 41.6184 180.634 41.1822C180.949 40.2896 181.706 39.5086 181.798 38.5678L181.691 38.583C182.615 37.4089 182.473 35.3624 182.93 33.8587C183.222 32.9655 183.576 32.0936 183.989 31.2493L185.688 27.5545C185.98 26.9206 186.285 26.2663 186.79 25.7795C187.402 25.1886 188.255 24.8944 188.87 24.3061C189.235 23.9439 189.509 23.4996 189.667 23.0103L189.721 23.061C190.046 23.378 190.3 23.766 190.617 24.0931C191.3 24.7981 192.247 25.2013 192.943 25.8936C193.299 26.246 193.591 26.6746 194.02 26.9307C194.239 27.0503 194.49 27.0982 194.738 27.0677C194.986 27.0372 195.218 26.9299 195.401 26.7608C196.648 25.6653 198.507 25.5639 199.856 24.5977C200.229 24.3289 200.554 24.0018 200.904 23.7077C201.741 23.0419 202.65 22.472 203.614 22.0086C204.18 22.0178 204.742 22.0979 205.288 22.247C206.07 22.4626 206.834 22.8201 207.647 22.8049C208.372 22.7692 209.067 22.5026 209.63 22.0441C210.044 21.7246 210.422 21.2834 210.483 20.7762C210.499 20.5159 210.452 20.2557 210.346 20.0174C210.24 19.7791 210.078 19.5697 209.874 19.4069C209.818 19.3587 209.76 19.3156 209.701 19.2725C209.684 19.0449 209.621 18.8231 209.516 18.6205C209.411 18.4179 209.265 18.2385 209.089 18.0933C208.678 17.7716 208.208 17.5322 207.705 17.3883C207.426 17.2787 207.131 17.212 206.832 17.1905C206.364 17.2159 205.905 17.3232 205.475 17.5075C204.611 17.7854 203.72 17.9724 202.817 18.0654C202.657 18.0806 202.332 18.0476 202.055 18.0451L201.961 17.7763C200.904 18.2632 199.675 17.8625 198.517 17.8651C197.954 17.8651 197.392 17.964 196.831 17.9995C196.21 18.024 195.587 18.0104 194.967 17.9589L193.091 17.8397C192.289 17.7986 191.491 17.7139 190.698 17.5861C190.488 17.1576 190.277 16.729 190.041 16.3182C189.643 15.6277 189.176 14.9794 188.646 14.3833C188.859 14.2005 189.083 14.0311 189.317 13.8762L189.363 13.8483C189.421 13.8153 189.492 13.7798 189.571 13.7443C190.303 14.0921 191.112 14.2493 191.922 14.2011C192.731 14.1528 193.515 13.9009 194.201 13.4686C194.887 13.0363 195.452 12.4377 195.844 11.7286C196.236 11.0196 196.442 10.223 196.443 9.41307C196.582 9.35964 196.717 9.29782 196.849 9.22796C196.925 9.18739 197.001 9.14427 197.075 9.09609L197.184 9.02256C197.254 8.97004 197.32 8.9133 197.382 8.85265C197.413 8.82222 197.443 8.79179 197.471 8.75883C197.527 8.69315 197.575 8.62175 197.616 8.54581C197.631 8.51538 197.646 8.48749 197.659 8.45706C197.672 8.42663 197.659 8.43424 197.672 8.42156C197.684 8.40888 197.69 8.37591 197.697 8.35563C197.705 8.33534 197.697 8.3252 197.71 8.30998L197.725 8.24912C197.726 8.23308 197.726 8.21698 197.725 8.20094C197.725 8.18065 197.725 8.16037 197.725 8.14261V8.08936C197.724 8.07079 197.724 8.05215 197.725 8.03357C197.726 8.015 197.726 7.99636 197.725 7.97778C197.725 7.96003 197.725 7.93975 197.725 7.922C197.726 7.90342 197.726 7.88478 197.725 7.86621V7.79774C197.726 7.77832 197.726 7.75884 197.725 7.73941C197.725 7.72166 197.725 7.70391 197.725 7.68616V7.6253V7.57458C197.725 7.55176 197.725 7.52894 197.725 7.50865C197.726 7.49346 197.726 7.4782 197.725 7.46301C197.726 7.43936 197.726 7.41565 197.725 7.392C197.725 7.37679 197.725 7.36411 197.725 7.35143C197.725 7.33875 197.725 7.30071 197.707 7.27535V7.23985L197.684 7.1587V7.12827C197.684 7.10038 197.667 7.07249 197.659 7.04459V7.01923L197.629 6.92794V6.91273C197.629 6.86962 197.601 6.82397 197.585 6.78086C197.395 6.23312 197.189 5.68791 196.971 5.15031C196.812 4.70044 196.573 4.28295 196.265 3.91789C195.815 3.44115 195.17 3.20278 194.632 2.8224C193.997 2.37609 193.522 1.74466 192.984 1.18171C192.446 0.618747 191.793 0.10904 191.018 0.0152138C190.403 -0.0206108 189.788 0.0915745 189.225 0.342339C184.56 2.06165 180.741 5.44954 176.559 8.13754C174.931 9.18485 173.107 10.1662 171.18 10.0318L172.881 12.73C172.963 12.8618 173.047 12.9836 173.135 13.1205C173.224 13.2574 173.313 13.3741 173.407 13.5009C173.647 13.8295 173.95 14.1071 174.299 14.3174C174.386 14.3684 174.478 14.4125 174.573 14.4493C174.656 14.4804 174.741 14.5067 174.827 14.5279C175.434 14.6724 176.096 14.5507 176.711 14.429C176.922 14.3884 177.133 14.3453 177.341 14.2971L177.595 14.2261H177.635C177.635 14.2413 177.635 14.254 177.635 14.2667C177.493 14.5203 177.359 14.751 177.239 15.0021C176.847 15.9108 176.544 16.8551 176.333 17.822C175.853 19.7238 175.37 21.6663 175.497 23.6189C175.54 24.2782 175.652 24.9528 175.462 25.5867C175.37 25.8986 175.208 26.2182 175.294 26.5275C175.385 26.7062 175.463 26.8909 175.528 27.0803C175.568 27.3745 175.335 27.6281 175.167 27.8715C174.999 28.115 174.913 28.503 175.152 28.6729C174.91 28.7574 174.697 28.908 174.537 29.1075C174.376 29.307 174.275 29.5474 174.245 29.8013C174.251 29.9506 174.221 30.0991 174.159 30.2349C174.088 30.3268 174.002 30.4064 173.905 30.4708C173.647 30.6868 173.478 30.9902 173.43 31.3228C172.94 31.3228 172.526 31.7996 172.079 32.0836C171.688 32.2813 171.274 32.4311 170.847 32.5299C169.621 32.9204 168.562 33.7243 167.604 34.5712C167.071 35.0353 166.533 35.5476 166.299 36.2119C166.223 36.43 166.182 36.6583 166.116 36.8789C165.98 37.3061 165.781 37.711 165.527 38.0809C165.04 38.8292 164.441 39.4981 163.75 40.0639C163.4 40.3451 163.092 40.6747 162.835 41.0427C162.447 41.6032 161.657 41.7705 161.241 42.3107C161.091 42.5767 160.921 42.8311 160.733 43.0714C160.41 43.3757 159.923 43.4011 159.511 43.5786C158.549 43.9767 158.104 45.1001 157.246 45.6935C157.199 45.7334 157.138 45.7534 157.076 45.7493C157.002 45.7493 156.959 45.6605 156.896 45.6174C156.771 45.5337 156.606 45.5971 156.459 45.6352C156.312 45.6732 156.113 45.658 156.075 45.5109C154.006 44.2582 151.972 42.899 149.899 41.6463L148.955 41.0757L143.901 38.0175C143.841 37.9801 143.772 37.9603 143.702 37.9603C143.631 37.9603 143.562 37.9801 143.502 38.0175L143.345 38.1265C143.091 37.8577 142.809 37.6193 142.642 37.4215C142.573 37.3429 142.504 37.2643 142.433 37.1882C142.48 37.1899 142.526 37.1813 142.568 37.1629C142.625 37.1321 142.668 37.0809 142.688 37.0197C142.708 36.9584 142.704 36.8917 142.677 36.8332C142.623 36.7177 142.543 36.6161 142.443 36.5365C142.223 36.3227 142.02 36.0912 141.837 35.8442C141.639 35.5349 141.416 35.243 141.169 34.9719C141.044 34.8362 140.89 34.7304 140.718 34.6624C140.547 34.5943 140.362 34.5658 140.178 34.5789C139.974 34.6179 139.779 34.6963 139.604 34.8096C138.91 35.2126 138.27 35.7026 137.7 36.2677C137.675 36.2857 137.654 36.3093 137.639 36.3365C137.625 36.3638 137.617 36.3941 137.616 36.425C137.616 36.4757 137.667 36.5137 137.672 36.5619C137.673 36.6089 137.656 36.6545 137.624 36.6887C137.282 37.1123 136.877 37.481 136.422 37.7816C135.777 38.2634 135.147 38.7639 134.531 39.2829C134.145 39.5567 133.84 39.9289 133.647 40.3606C133.512 40.8614 133.568 41.394 133.802 41.8567C134.223 42.8483 134.962 43.6699 135.694 44.4636C135.814 44.6269 135.984 44.7464 136.179 44.8034C136.333 44.8247 136.49 44.7866 136.618 44.6969C137.067 44.4027 137.141 43.7941 137.174 43.2616C137.187 43.008 137.202 42.7747 137.217 42.5313C137.216 42.4825 137.226 42.434 137.245 42.3893C137.284 42.334 137.338 42.2909 137.4 42.265L138.098 41.8973C138.078 41.8644 138.055 41.8314 138.032 41.7984C138.559 41.6011 139.133 41.564 139.681 41.6919C140.051 41.801 140.392 42.0216 140.747 42.1585C140.691 42.6318 140.779 43.111 141.001 43.5329C142.304 43.6673 143.477 44.2455 144.643 44.8288C145.582 45.2938 146.496 45.8093 147.38 46.3731C148.098 46.8397 148.801 47.3274 149.488 47.8363C150.463 48.5565 151.405 49.3198 152.337 50.0907C152.943 50.6245 153.595 51.1039 154.285 51.5234C156.119 52.5504 158.577 52.5859 160.26 51.3053C162.383 49.69 165.085 48.8506 167.371 47.4534C168.05 47.0742 168.67 46.5984 169.212 46.0409C169.207 46.1067 169.197 46.172 169.181 46.2362C169.044 46.8676 168.498 47.324 168.293 47.9631C168.133 48.4702 168.191 49.056 167.881 49.4846C167.645 49.8117 167.203 50.045 167.191 50.4482C167.191 50.5598 167.224 50.6714 167.224 50.7829C167.211 50.9242 167.169 51.0614 167.102 51.1861C166.848 51.7567 166.563 52.3552 166.043 52.7077C165.84 52.8471 165.581 52.9739 165.535 53.2148C165.532 53.2847 165.514 53.3531 165.482 53.4152C165.395 53.5343 165.205 53.4709 165.068 53.5217C164.877 53.5927 164.847 53.8386 164.77 54.0288C164.701 54.1868 164.583 54.3189 164.434 54.4062C164.285 54.4936 164.112 54.5319 163.94 54.5157C162.206 54.3052 160.502 55.0888 158.754 55.0432C158.153 55.0254 157.553 54.9646 156.949 54.9595C155.095 54.9443 153.279 55.4667 151.494 55.9738C151.295 56.3247 151.172 56.7135 151.134 57.115C150.524 57.2714 149.887 57.2956 149.267 57.186C149.113 57.1556 148.957 57.1345 148.8 57.1226C148.845 57.0082 148.859 56.884 148.84 56.7625C148.111 56.9934 147.41 57.3056 146.75 57.6931C146.316 57.9467 145.857 58.3017 145.816 58.8013C145.81 58.9939 145.837 59.1861 145.897 59.3693L146.133 60.2645C146.162 60.4302 146.235 60.5852 146.344 60.7133C146.423 60.7894 146.527 60.8351 146.598 60.9162C146.667 61.0121 146.714 61.1221 146.735 61.2383L146.933 62.0142C147.007 62.2724 147.06 62.5361 147.091 62.8029C147.114 63.0565 147.091 63.2898 147.108 63.5332C147.135 63.9345 147.194 64.333 147.284 64.7251L147.566 66.1299C147.629 66.5226 147.74 66.9059 147.898 67.271C148.018 67.5246 148.178 67.7427 148.274 67.9963C148.35 68.1916 148.386 68.3995 148.477 68.5846C148.642 68.8853 148.9 69.124 149.214 69.2642C149.323 69.3285 149.445 69.3667 149.572 69.3758C149.932 69.3758 150.191 69.0411 150.359 68.7215C150.693 68.1406 150.874 67.4844 150.885 66.8146C150.885 66.5458 150.831 66.2795 150.808 66.0107C150.748 65.25 150.966 64.5095 150.966 63.7513C150.974 63.6496 150.947 63.5483 150.889 63.4642C150.831 63.3802 150.746 63.3186 150.648 63.2898C150.671 62.6457 150.669 61.9635 151.009 61.4132C151.178 61.1572 151.387 60.9302 151.629 60.7412C151.723 61.0405 151.827 61.3372 151.944 61.6262C153.876 61.0633 155.872 60.5206 157.896 60.4699ZM199.185 21.5268C199.048 21.5775 198.908 21.6283 198.766 21.6739C197.583 22.067 196.227 22.4499 195.003 22.1811C194.632 22.0742 194.283 21.9025 193.972 21.6739L193.883 21.6181C195.607 21.3164 197.408 21.3899 199.185 21.5268Z" fill="url(#paint0_linear_85_2)"/>
<path d="M206.057 18.9174C206.484 18.7345 206.941 18.6289 207.405 18.6055C207.703 18.6281 207.996 18.6957 208.274 18.8059C208.776 18.9521 209.245 19.1931 209.655 19.5159C209.858 19.6797 210.02 19.8892 210.126 20.1272C210.233 20.3652 210.281 20.625 210.267 20.8853C210.209 21.3924 209.833 21.8311 209.422 22.1532C208.864 22.6112 208.173 22.8779 207.451 22.9139C206.644 22.9266 205.882 22.564 205.102 22.3485C204.535 22.1883 203.949 22.103 203.36 22.0949C203.064 22.1108 202.766 22.0921 202.474 22.0391C202.327 22.0115 202.189 21.9498 202.071 21.859C201.953 21.7683 201.858 21.651 201.793 21.5167C201.72 21.2684 201.72 21.0042 201.793 20.7559C201.852 20.4415 201.842 19.696 202.121 19.5083C202.344 19.3561 203.137 19.4779 203.411 19.455C204.31 19.37 205.197 19.1898 206.057 18.9174Z" fill="#FBBEBE"/>
<path d="M187.928 13.8128C188.697 14.564 189.359 15.4173 189.896 16.3486C190.79 17.9056 191.359 19.7162 192.705 20.9132C193.062 21.2138 193.442 21.4875 193.84 21.7322C194.151 21.9606 194.5 22.1323 194.871 22.2394C196.079 22.5107 197.436 22.1329 198.614 21.7322C199.78 21.3142 200.912 20.8055 201.999 20.2107C202.006 20.7006 202.143 21.1799 202.395 21.6004C202.677 21.9985 203.253 22.2318 203.665 21.9808C202.623 22.4697 201.64 23.0763 200.737 23.7888C200.389 24.083 200.066 24.4076 199.696 24.6738C198.357 25.6349 196.506 25.7313 195.269 26.8217C195.086 26.9886 194.855 27.0942 194.609 27.1238C194.363 27.1533 194.113 27.1053 193.896 26.9865C193.466 26.7329 193.174 26.2968 192.821 25.9443C192.126 25.2495 191.181 24.8437 190.498 24.1362C190.18 23.8091 189.926 23.4211 189.601 23.1016C189.137 22.6451 188.532 22.3408 188.106 21.8337C187.788 21.4609 187.598 21.007 187.301 20.6089C187.047 20.264 186.747 19.9622 186.521 19.5945C185.967 18.7146 185.972 17.5658 186.29 16.5794C186.607 15.5929 187.336 14.6724 187.928 13.8128Z" fill="#F86D70"/>
<path opacity="0.1" d="M187.928 13.8128C188.697 14.564 189.359 15.4173 189.896 16.3486C190.79 17.9056 191.359 19.7162 192.705 20.9132C193.062 21.2138 193.442 21.4875 193.84 21.7322C194.151 21.9606 194.5 22.1323 194.871 22.2394C196.079 22.5107 197.436 22.1329 198.614 21.7322C199.78 21.3142 200.912 20.8055 201.999 20.2107C202.006 20.7006 202.143 21.1799 202.395 21.6004C202.677 21.9985 203.253 22.2318 203.665 21.9808C202.623 22.4697 201.64 23.0763 200.737 23.7888C200.389 24.083 200.066 24.4076 199.696 24.6738C198.357 25.6349 196.506 25.7313 195.269 26.8217C195.086 26.9886 194.855 27.0942 194.609 27.1238C194.363 27.1533 194.113 27.1053 193.896 26.9865C193.466 26.7329 193.174 26.2968 192.821 25.9443C192.126 25.2495 191.181 24.8437 190.498 24.1362C190.18 23.8091 189.926 23.4211 189.601 23.1016C189.137 22.6451 188.532 22.3408 188.106 21.8337C187.788 21.4609 187.598 21.007 187.301 20.6089C187.047 20.264 186.747 19.9622 186.521 19.5945C185.967 18.7146 185.972 17.5658 186.29 16.5794C186.607 15.5929 187.336 14.6724 187.928 13.8128Z" fill="black"/>
<path d="M142.794 37.2314C142.597 36.9735 142.354 36.7543 142.078 36.5847C141.658 36.3986 141.189 36.3506 140.74 36.4478C139.607 36.6202 138.556 37.1375 137.56 37.7157C136.758 38.1747 135.96 38.6844 135.386 39.4071C135.197 39.625 135.066 39.8864 135.003 40.1679C134.97 40.4001 134.99 40.6367 135.061 40.8602C135.112 41.1118 135.221 41.3483 135.378 41.5515C135.535 41.7547 135.737 41.919 135.968 42.0317C136.499 42.2397 137.09 42.019 137.624 41.8162C138.34 41.5398 139.127 41.2837 139.863 41.5017C140.409 41.664 140.879 42.0774 141.456 42.0926C142.134 42.1129 142.682 41.5651 143.114 41.0427C143.487 40.5863 144.305 39.7621 144.252 39.1206C144.198 38.479 143.195 37.6904 142.794 37.2314Z" fill="#FBBEBE"/>
<path d="M151.352 56.9679C150.731 57.1332 150.08 57.16 149.447 57.0465C149.061 56.9755 148.589 56.8842 148.343 57.186C148.263 57.2978 148.21 57.4261 148.188 57.5613C147.555 60.1453 148.134 62.8866 149.204 65.3337C149.217 65.375 149.242 65.4118 149.275 65.4402C149.343 65.4909 149.437 65.4554 149.516 65.4224C149.775 65.3186 150.017 65.1776 150.235 65.004C150.722 64.5628 150.826 63.8451 150.849 63.1883C150.872 62.5315 150.862 61.8367 151.202 61.2738C151.629 60.5764 152.52 60.2366 152.871 59.4987C153.152 58.8977 153.005 58.1851 152.756 57.5714C152.672 57.3584 152.639 56.8107 152.441 56.7067C152.243 56.6027 151.578 56.907 151.352 56.9679Z" fill="#FBBEBE"/>
<path d="M142.72 36.9727C142.777 36.9415 142.819 36.8901 142.839 36.8289C142.859 36.7677 142.854 36.7013 142.827 36.643C142.772 36.5271 142.693 36.4249 142.593 36.3438C142.372 36.1303 142.17 35.8978 141.989 35.649C141.789 35.3412 141.566 35.0496 141.321 34.7767C141.197 34.6411 141.043 34.5353 140.872 34.4668C140.701 34.3983 140.517 34.369 140.333 34.3811C140.129 34.4175 139.935 34.4952 139.762 34.6093C139.071 35.0091 138.435 35.4967 137.87 36.0598C137.827 36.1029 137.779 36.1562 137.789 36.217C137.799 36.2779 137.839 36.3032 137.845 36.354C137.846 36.3998 137.83 36.4444 137.799 36.4782C137.46 36.9002 137.057 37.2671 136.605 37.5661C135.965 38.0462 135.339 38.5449 134.726 39.0622C134.343 39.3346 134.04 39.7052 133.85 40.1349C133.72 40.6357 133.777 41.1665 134.01 41.6285C134.434 42.6226 135.173 43.4442 135.902 44.243C136.024 44.4059 136.195 44.5258 136.389 44.5853C136.543 44.6062 136.699 44.5681 136.826 44.4788C137.271 44.1872 137.334 43.5786 137.372 43.0486L137.413 42.3157C137.412 42.2678 137.421 42.2202 137.441 42.1763C137.479 42.1205 137.533 42.0773 137.596 42.052L138.286 41.6868C138.075 41.3438 137.775 41.0645 137.417 40.8787C137.059 40.6929 136.657 40.6076 136.255 40.6319C136.071 40.6756 135.877 40.6494 135.711 40.5584C135.631 40.4753 135.587 40.3644 135.587 40.249C135.587 40.1337 135.631 40.0228 135.711 39.9396C135.88 39.7799 136.086 39.6655 136.311 39.6075C138.132 38.9405 139.777 37.8704 141.545 37.0716C141.738 36.9738 141.952 36.9242 142.169 36.9271C142.347 36.9397 142.555 37.0437 142.72 36.9727Z" fill="#F86D70"/>
<path d="M149.894 63.5281C149.813 63.6803 149.785 63.8578 149.696 64.0074C149.607 64.157 149.414 64.261 149.264 64.1849C149.186 64.1298 149.127 64.0506 149.097 63.9592C148.327 62.2005 148.11 60.2497 148.475 58.3651C148.525 58.0569 148.617 57.7567 148.746 57.4725C148.881 57.1986 149.077 56.9197 149.021 56.6205C148.296 56.8488 147.599 57.1585 146.943 57.5435C146.512 57.7971 146.057 58.1496 146.017 58.6466C146.013 58.8393 146.041 59.0313 146.1 59.2146L146.339 60.1098C146.368 60.276 146.442 60.4312 146.552 60.5586C146.629 60.6347 146.733 60.6829 146.806 60.764C146.876 60.8586 146.923 60.9679 146.943 61.0836L147.144 61.8595C147.219 62.1185 147.272 62.3831 147.304 62.6507C147.327 62.9043 147.304 63.1376 147.324 63.381C147.353 63.7814 147.413 64.179 147.502 64.5704L147.789 65.9752C147.854 66.3678 147.966 66.751 148.124 67.1164C148.244 67.3699 148.404 67.588 148.503 67.8441C148.576 68.0394 148.614 68.2473 148.706 68.4325C148.871 68.7326 149.128 68.9718 149.44 69.1146C149.549 69.1785 149.671 69.2175 149.798 69.2287C150.156 69.2414 150.412 68.894 150.58 68.5745C150.907 67.9935 151.082 67.3392 151.088 66.6726C151.088 66.4038 151.032 66.1375 151.009 65.8687C150.946 65.108 151.159 64.37 151.156 63.6118C151.161 62.9018 150.156 63.0362 149.894 63.5281Z" fill="#F86D70"/>
<path d="M187.153 19.346C186.362 18.9824 185.666 18.4398 185.122 17.7611C184.842 17.4032 184.587 17.0262 184.36 16.6326C183.395 15.0072 182.567 13.3049 181.884 11.5432C182.966 11.7638 184.101 11.9641 185.165 11.6598C185.72 11.4909 186.237 11.2172 186.689 10.8534C187.267 10.3784 187.804 9.85498 188.294 9.28882C188.663 9.99688 189.088 10.6752 189.563 11.3175C189.835 11.6827 190.754 12.4257 190.686 12.9227C190.617 13.4197 189.601 13.6682 189.19 13.9041L189.147 13.932C188.54 14.3149 188.01 14.8077 187.585 15.385C186.788 16.516 186.511 18.0933 187.153 19.346Z" fill="#FBBEBE"/>
<path opacity="0.1" d="M189.21 13.8939C188.6 13.5946 188.061 13.1682 187.629 12.6432C187.198 12.1183 186.884 11.5072 186.709 10.8509C187.287 10.3759 187.824 9.85244 188.314 9.28629C188.684 9.99435 189.108 10.6726 189.584 11.315C189.855 11.6801 190.775 12.4231 190.706 12.9202C190.637 13.4172 189.622 13.6581 189.21 13.8939Z" fill="black"/>
<path d="M191.496 14.2667C194.123 14.2667 196.252 12.1402 196.252 9.51705C196.252 6.89389 194.123 4.7674 191.496 4.7674C188.869 4.7674 186.739 6.89389 186.739 9.51705C186.739 12.1402 188.869 14.2667 191.496 14.2667Z" fill="#FBBEBE"/>
<path d="M181.092 39.1028C180.762 39.2999 180.388 39.4084 180.004 39.4178C179.62 39.4271 179.241 39.3369 178.903 39.1561C178.55 38.9393 178.232 38.6718 177.958 38.3623C176.396 36.7622 174.911 35.0657 173.867 33.0802C173.624 32.6612 173.467 32.1984 173.405 31.7184C173.375 31.4786 173.404 31.2352 173.49 31.0091C173.575 30.783 173.714 30.5809 173.895 30.4201C173.992 30.356 174.078 30.2763 174.149 30.1842C174.21 30.049 174.239 29.9014 174.233 29.7531C174.261 29.5002 174.36 29.2604 174.519 29.0616C174.678 28.8628 174.891 28.713 175.131 28.6298C174.878 28.4573 174.979 28.0744 175.144 27.8284C175.309 27.5824 175.54 27.3213 175.5 27.0372C175.435 26.8478 175.357 26.6631 175.266 26.4844C175.175 26.175 175.34 25.8555 175.429 25.5462C175.614 24.9122 175.502 24.2377 175.457 23.5783C175.322 21.6257 175.797 19.6883 176.267 17.789C176.474 16.8245 176.774 15.882 177.161 14.9742C177.28 14.7206 177.414 14.467 177.552 14.2413C178.031 13.4653 178.565 12.7238 179.149 12.0225C179.422 11.6098 179.797 11.2745 180.238 11.0487C180.28 11.0308 180.322 11.0156 180.365 11.0031C180.682 10.9214 181.01 10.8965 181.335 10.9295C182.194 10.9828 183.095 11.1831 183.707 11.7866C184.319 12.3902 184.517 13.2371 184.794 14.0537C184.882 14.327 184.989 14.5939 185.114 14.8525C185.518 15.6538 186.176 16.2928 186.823 16.9141L187.527 17.5912C187.88 17.931 188.492 17.8448 188.824 18.2023C188.96 18.3704 189.061 18.5634 189.121 18.7704C189.497 19.685 189.716 20.6563 189.769 21.6435C189.771 21.863 189.759 22.0825 189.731 22.3003C189.645 23.0645 189.306 23.7784 188.768 24.329C188.159 24.9147 187.311 25.2038 186.704 25.7921C186.196 26.279 185.901 26.9307 185.612 27.5672C185.053 28.7946 184.494 30.0236 183.933 31.2544C183.528 32.0965 183.179 32.9649 182.89 33.8536C182.361 35.6262 182.661 38.1265 181.092 39.1028Z" fill="#C74634"/>
<path d="M166.426 59.9982C165.172 60.0489 163.915 60.0337 162.665 60.1529C161.936 60.2239 161.21 60.3431 160.479 60.3735C159.681 60.409 158.881 60.3456 158.082 60.3609C156.068 60.404 154.082 60.939 152.144 61.4918C151.597 60.1579 151.312 58.7314 151.304 57.2899C151.299 57.1945 151.299 57.0988 151.304 57.0034C151.339 56.5952 151.461 56.1993 151.662 55.842C153.439 55.3348 155.242 54.8276 157.089 54.853C157.69 54.853 158.287 54.924 158.887 54.9417C160.626 54.995 162.317 54.2165 164.044 54.4346C164.215 54.4515 164.388 54.4137 164.536 54.3266C164.684 54.2396 164.801 54.1078 164.869 53.9502C164.943 53.7626 164.974 53.5166 165.164 53.443C165.301 53.3923 165.489 53.4557 165.575 53.3391C165.606 53.2764 165.624 53.2084 165.629 53.1388C165.68 52.8852 165.936 52.7711 166.137 52.6316C166.645 52.2816 166.932 51.6832 167.185 51.1101C167.252 50.986 167.293 50.8497 167.305 50.7094C167.305 50.5978 167.269 50.4862 167.272 50.3721C167.272 49.9715 167.721 49.7407 167.955 49.4136C168.262 48.9825 168.209 48.3992 168.359 47.8921C168.562 47.253 169.103 46.7991 169.237 46.1702C169.253 46.106 169.263 46.0408 169.268 45.975C168.729 46.5297 168.112 47.003 167.437 47.3798C165.182 48.7669 162.485 49.5962 160.38 51.2014C158.709 52.4693 156.261 52.4312 154.432 51.3992C153.743 50.9779 153.092 50.4968 152.487 49.9613C151.558 49.2006 150.618 48.4221 149.645 47.6968C148.968 47.1896 148.266 46.7002 147.54 46.2286C146.661 45.6477 145.75 45.1153 144.813 44.6335C143.65 44.0452 142.479 43.4619 141.184 43.3225C141.017 42.9831 140.925 42.6123 140.913 42.2346C140.901 41.8569 140.969 41.4809 141.113 41.1315C141.409 40.4364 141.809 39.7907 142.301 39.2169C142.669 38.6779 143.13 38.2083 143.662 37.8298C143.722 37.7924 143.79 37.7726 143.861 37.7726C143.931 37.7726 143.999 37.7924 144.059 37.8298L149.092 40.9159L150.034 41.4916C152.099 42.7595 154.13 44.1162 156.195 45.3765C156.233 45.5211 156.433 45.5388 156.578 45.5008C156.723 45.4627 156.888 45.4019 157.012 45.4856C157.073 45.5261 157.117 45.6022 157.193 45.6174C157.253 45.6194 157.313 45.5997 157.36 45.5616C158.214 44.9758 158.65 43.8499 159.608 43.4569C160.017 43.2895 160.502 43.2641 160.822 42.9497C161.011 42.71 161.181 42.4556 161.329 42.1889C161.743 41.6488 162.528 41.4865 162.912 40.921C163.166 40.5548 163.471 40.2268 163.818 39.9473C164.51 39.3849 165.11 38.7185 165.596 37.9718C165.847 37.6032 166.043 37.2 166.177 36.7749C166.243 36.5543 166.284 36.3261 166.358 36.108C166.589 35.4436 167.119 34.9339 167.65 34.4724C168.613 33.6304 169.651 32.8317 170.87 32.4437C171.295 32.3454 171.707 32.1964 172.097 31.9999C172.587 31.7007 173.036 31.1453 173.598 31.2746C173.811 31.3405 174.002 31.4612 174.154 31.6246C174.842 32.2931 175.475 33.0165 176.046 33.7877C176.951 34.9389 177.856 36.0911 178.76 37.244C179.046 37.6586 179.407 38.0156 179.824 38.2964C180.431 38.6079 181.127 38.6977 181.792 38.55C181.704 39.4908 180.954 40.2668 180.645 41.1594C180.495 41.593 180.436 42.0545 180.325 42.4983C180.167 43.0552 179.966 43.5987 179.723 44.1238C179.113 45.5413 178.499 46.9665 177.625 48.2395C177.173 48.9013 176.653 49.5074 176.142 50.1287C174.128 52.5555 172.587 55.4819 170.301 57.6652C169.748 58.2003 169.397 58.9332 168.778 59.3922C168.105 59.8892 167.236 59.9653 166.426 59.9982Z" fill="#434175"/>
<path opacity="0.1" d="M175.995 27.8233C175.771 27.8343 175.553 27.8995 175.36 28.0135C175.825 27.8512 176.391 28.2849 176.82 28.0795C177.021 27.9831 176.99 27.9552 176.82 27.8969C176.564 27.8107 176.254 27.8893 175.995 27.8233Z" fill="black"/>
<path d="M256.167 111.623L237.501 118.242L238.691 121.587L257.357 114.968L256.167 111.623Z" fill="#D0D2D5"/>
<path d="M243.745 125.179L260.736 119.154C261.18 118.997 261.669 119.022 262.095 119.224C262.52 119.426 262.848 119.789 263.006 120.233C263.164 120.677 263.138 121.165 262.936 121.59C262.733 122.015 262.37 122.342 261.926 122.5L244.935 128.525L243.745 125.179Z" fill="#D0D2D5"/>
<path d="M227.558 114.772L231.698 113.304C235.379 111.999 239.429 112.207 242.956 113.883C246.483 115.56 249.199 118.567 250.506 122.242L251.977 126.377C252.488 127.814 252.406 129.395 251.75 130.773C251.093 132.15 249.916 133.21 248.476 133.721L235.884 138.186C234.445 138.696 232.861 138.615 231.482 137.96C230.103 137.304 229.041 136.128 228.529 134.691L224.058 122.116C223.547 120.679 223.628 119.098 224.285 117.72C224.941 116.343 226.119 115.283 227.558 114.772Z" fill="#3F3D56"/>
<path opacity="0.1" d="M175.766 30.2983C175.594 30.238 175.409 30.2266 175.231 30.2654C174.965 30.2936 174.717 30.4148 174.532 30.6077C174.581 30.6298 174.634 30.6412 174.688 30.6412C174.742 30.6412 174.795 30.6298 174.845 30.6077C175.01 30.5657 175.181 30.5469 175.352 30.5519C175.5 30.5519 175.939 30.7142 176.053 30.6432C176.221 30.5342 175.881 30.3415 175.766 30.2983Z" fill="black"/>
<path opacity="0.1" d="M189.731 22.3003C189.348 22.1712 188.983 21.9958 188.644 21.7779C187.753 21.2124 187.003 20.444 186.122 19.8659C185.677 19.5867 185.217 19.3327 184.743 19.1051L181.77 17.5836C181.543 17.4548 181.301 17.3559 181.048 17.2894C180.563 17.1829 180.017 17.5075 179.525 17.439C179.269 17.3922 179.027 17.2918 178.813 17.1445C178.6 16.9972 178.42 16.8063 178.285 16.5845C178.017 16.1413 177.828 15.6547 177.727 15.1466C177.651 14.847 177.594 14.543 177.557 14.2363C177.513 13.9177 177.507 13.5951 177.539 13.2752C177.59 12.6398 177.891 12.0505 178.377 11.637C178.73 11.387 179.131 11.2141 179.555 11.1298C179.823 11.0623 180.095 11.0173 180.37 10.9954C180.527 10.9828 180.684 10.9828 180.84 10.9954C181.963 11.0842 182.912 11.845 183.662 12.6818C184.055 13.123 184.423 13.5972 184.799 14.0461C184.887 14.3194 184.994 14.5863 185.119 14.8449C185.523 15.6462 186.181 16.2852 186.828 16.9065L187.532 17.5836C187.885 17.9234 188.497 17.8372 188.829 18.1947C188.965 18.3628 189.066 18.5558 189.126 18.7628C189.501 19.6801 189.718 20.654 189.769 21.6435C189.771 21.863 189.759 22.0825 189.731 22.3003Z" fill="black"/>
<path opacity="0.1" d="M166.604 54.7541L151.301 57.0034C151.337 56.5952 151.459 56.1993 151.659 55.842C153.437 55.3348 155.24 54.8276 157.086 54.853C157.688 54.853 158.285 54.924 158.884 54.9417C160.624 54.995 162.315 54.2165 164.042 54.4346C164.213 54.4515 164.385 54.4137 164.533 54.3266C164.682 54.2396 164.798 54.1078 164.867 53.9502C164.941 53.7626 164.971 53.5166 165.162 53.443C165.299 53.3923 165.487 53.4557 165.573 53.3391C165.604 53.2764 165.622 53.2084 165.626 53.1387C165.677 52.8852 165.934 52.7711 166.134 52.6316C166.642 52.2816 166.929 51.6832 167.183 51.1101C167.25 50.986 167.29 50.8497 167.302 50.7094C167.302 50.5978 167.267 50.4862 167.269 50.3721C167.269 49.9715 167.719 49.7407 167.952 49.4136C168.26 48.9825 168.206 48.3992 168.356 47.8921C168.559 47.253 169.1 46.7991 169.235 46.1702L169.301 46.084L171.906 45.0697L166.604 54.7541Z" fill="black"/>
<path opacity="0.1" d="M107.927 177.933C167.534 177.933 215.854 174.186 215.854 169.565C215.854 164.943 167.534 161.196 107.927 161.196C48.3206 161.196 0 164.943 0 169.565C0 174.186 48.3206 177.933 107.927 177.933Z" fill="#C74634"/>
<path opacity="0.1" d="M203.34 200C241.909 200 273.175 195.939 273.175 190.929C273.175 185.92 241.909 181.859 203.34 181.859C164.771 181.859 133.505 185.92 133.505 190.929C133.505 195.939 164.771 200 203.34 200Z" fill="#C74634"/>
<path d="M120.688 162.789L120.759 159.198C124.145 159.005 127.531 158.877 130.917 158.813C132.882 158.777 134.873 158.765 136.775 159.256C138.093 159.599 139.34 160.177 140.64 160.583C143.231 161.389 145.973 161.496 148.693 161.569C151.332 161.643 154.087 161.668 156.456 160.504C160.557 158.475 162.282 153.492 162.482 148.931C162.683 144.369 161.774 139.771 162.406 135.237" stroke="#3F3D56" stroke-width="12" stroke-miterlimit="10"/>
<path d="M129.972 169.816L84.7215 169.238L84.8536 168.079L87.0426 148.961H126.78L129.706 168.079L129.929 169.527L129.972 169.816Z" fill="#D0D2D5"/>
<path opacity="0.1" d="M129.929 169.527H107.346L84.7215 169.238L84.8536 168.079H129.706L129.929 169.527Z" fill="black"/>
<path d="M137.225 168.368H77.1793V169.816H137.225V168.368Z" fill="#D0D2D5"/>
<path d="M194.513 34.1376C194.517 33.6412 194.423 33.1487 194.236 32.6886C194.05 32.2284 193.774 31.8096 193.425 31.4562C193.075 31.1028 192.66 30.8217 192.202 30.6291C191.743 30.4365 191.251 30.3362 190.754 30.3338H23.0685C22.5714 30.3365 22.0797 30.4371 21.6216 30.6298C21.1635 30.8225 20.748 31.1036 20.3988 31.4569C20.0497 31.8103 19.7738 32.229 19.587 32.689C19.4001 33.149 19.306 33.6412 19.3101 34.1376V135.638H194.513V34.1376Z" fill="#3F3D56"/>
<path d="M19.3101 134.623V146.514C19.3101 147.509 19.706 148.464 20.4109 149.168C21.1157 149.871 22.0717 150.267 23.0685 150.267H190.754C191.751 150.267 192.707 149.871 193.412 149.168C194.117 148.464 194.513 147.509 194.513 146.514V134.623H19.3101Z" fill="#D0D2D5"/>
<path d="M188.131 36.7191H26.5628V127.962H188.131V36.7191Z" fill="#2F2E41"/>
<path d="M107.782 145.756C108.376 145.756 108.961 145.621 109.495 145.363C110.028 145.104 110.496 144.728 110.863 144.262C110.975 144.12 111.077 143.97 111.167 143.813L109.019 143.461L111.343 143.478C111.566 142.994 111.687 142.469 111.7 141.937C111.712 141.404 111.616 140.874 111.416 140.38L108.3 141.995L111.175 139.885C110.91 139.413 110.549 139.001 110.116 138.675C109.683 138.349 109.187 138.116 108.659 137.992C108.132 137.867 107.584 137.854 107.05 137.952C106.517 138.05 106.01 138.258 105.561 138.561C105.113 138.865 104.732 139.259 104.443 139.718C104.155 140.176 103.965 140.69 103.886 141.225C103.806 141.761 103.839 142.307 103.983 142.83C104.126 143.352 104.376 143.839 104.717 144.259C105.082 144.724 105.547 145.1 106.078 145.359C106.609 145.618 107.191 145.754 107.782 145.756Z" fill="#C74634"/>
<path opacity="0.1" d="M111.698 150.264L129.751 168.368L126.981 150.264H111.698Z" fill="black"/>
<path d="M189.236 35.9761L198.931 23.1472C199.51 22.3865 200.107 21.5928 200.902 21.045C203.187 19.4677 206.537 20.4009 208.449 22.422C210.361 24.4431 211.164 27.2553 211.75 29.9738C213.117 36.2307 213.727 42.6286 213.569 49.0307C213.487 52.4008 213.185 55.8065 212.111 59.0042C210.481 63.8679 207.177 67.9633 204.681 72.4442C200.661 79.6637 198.977 89.2924 204.066 95.807C205.724 97.9295 207.982 99.5524 209.513 101.769C211.243 104.272 211.916 107.332 212.561 110.304C213.523 114.793 214.488 119.309 214.666 123.897C215.24 138.729 206.771 153.548 193.692 160.603C184.614 165.502 173.631 166.922 165.735 173.566C162.942 175.907 160.535 179.348 161.22 182.913C161.779 185.807 164.323 188.005 167.117 188.961C169.91 189.917 172.94 189.839 175.886 189.671C182.961 189.268 190.002 188.399 196.963 187.072C202.862 185.946 208.751 184.975 213.894 181.876C214.409 181.604 214.85 181.21 215.176 180.728C215.509 180.172 215.565 179.5 215.61 178.854C215.75 176.949 215.882 174.974 215.209 173.186C214.425 171.096 212.634 169.514 211.776 167.455C210.918 165.396 211.072 163.025 211.629 160.862C212.314 158.189 213.561 155.699 214.816 153.241C216.037 150.848 217.276 148.461 218.714 146.192C222.762 139.812 228.293 134.527 233.765 129.316" stroke="#3F3D56" stroke-width="4" stroke-miterlimit="10"/>
<path d="M205.28 17.5861C205.707 17.4008 206.164 17.2951 206.628 17.2742C206.926 17.2973 207.219 17.364 207.497 17.472C207.999 17.6191 208.468 17.861 208.878 18.1846C209.082 18.3481 209.243 18.5575 209.35 18.7956C209.456 19.0337 209.504 19.2936 209.49 19.5539C209.432 20.0611 209.056 20.4973 208.645 20.8219C208.087 21.2806 207.396 21.5474 206.674 21.5826C205.867 21.5826 205.105 21.2327 204.325 21.0146C203.758 20.8544 203.172 20.7691 202.583 20.761C202.286 20.7761 201.989 20.7566 201.697 20.7027C201.55 20.6755 201.413 20.6143 201.294 20.524C201.176 20.4337 201.081 20.3168 201.016 20.1828C200.946 19.9384 200.946 19.6792 201.016 19.4348C201.077 19.1203 201.067 18.3722 201.346 18.1846C201.57 18.035 202.362 18.1567 202.636 18.1339C203.534 18.0429 204.42 17.8594 205.28 17.5861Z" fill="#FBBEBE"/>
<path d="M201.758 17.8397C200.706 18.3215 199.472 17.9209 198.329 17.9183C197.768 17.9183 197.21 18.0121 196.651 18.0451C196.032 18.0671 195.412 18.051 194.795 17.9969L192.936 17.8701C191.84 17.8338 190.752 17.6843 189.688 17.4238C188.779 16.3537 187.303 15.882 186.206 15.0097C185.327 14.3098 184.698 13.3563 183.948 12.517C183.199 11.6776 182.25 10.9194 181.13 10.8306C180.696 10.809 180.262 10.8552 179.842 10.9676C179.418 11.0502 179.017 11.2232 178.666 11.4747C178.425 11.6791 178.227 11.9291 178.084 12.2102C177.94 12.4914 177.853 12.7981 177.828 13.1129C177.782 13.7427 177.845 14.3758 178.014 14.9843C178.115 15.4932 178.304 15.9806 178.572 16.4247C178.708 16.6457 178.889 16.8358 179.103 16.983C179.317 17.1302 179.559 17.2311 179.814 17.2793C180.304 17.3452 180.848 17.0257 181.338 17.1271C181.59 17.1936 181.832 17.2925 182.059 17.4213L185.035 18.9428C185.508 19.171 185.967 19.4249 186.412 19.7036C187.295 20.2817 188.042 21.0501 188.933 21.6156C189.825 22.1811 190.95 22.5361 191.94 22.1659C194.988 21.0323 198.421 21.5598 201.654 21.8413C201.633 21.7804 201.765 21.7246 201.803 21.6739C202.203 21.1259 202.384 20.4487 202.311 19.7746C202.233 19.1076 201.979 18.4787 201.758 17.8397Z" fill="#C74634"/>
<path d="M196.646 9.29643C196.962 9.15113 197.228 8.91439 197.408 8.61682C197.697 8.08175 197.519 7.42497 197.321 6.84172C197.123 6.25848 196.923 5.74877 196.702 5.21117C196.544 4.76006 196.304 4.34155 195.996 3.97621C195.546 3.49694 194.904 3.25603 194.368 2.87819C193.733 2.42934 193.258 1.79284 192.722 1.23242C192.186 0.671999 191.531 0.15215 190.759 0.0583238C190.165 0.0284917 189.571 0.138817 189.027 0.380377C184.39 2.08193 180.599 5.45208 176.447 8.12487C174.832 9.1671 173.019 10.1383 171.114 9.99886L172.818 12.7021C173.252 13.3944 173.74 14.1272 174.502 14.4239C175.175 14.6775 175.926 14.5507 176.632 14.4239C177.194 14.3427 177.741 14.1786 178.255 13.937C179.271 13.3868 179.923 12.2431 181.015 11.845C181.831 11.5483 182.74 11.7308 183.555 12.0149C184.37 12.2989 185.17 12.6843 186.028 12.801C187.552 13.0064 189.076 12.3192 190.345 11.4316C191.107 10.9042 191.8 10.2981 192.631 9.9101C193.256 9.58641 193.965 9.46162 194.662 9.55255C195.432 9.65905 195.884 9.69456 196.646 9.29643Z" fill="#2F2E41"/>
<path opacity="0.1" d="M197.408 8.61682C197.692 8.0919 197.524 7.44779 197.331 6.8823C197.394 7.20629 197.349 7.54182 197.204 7.83831C197.023 8.1344 196.758 8.3707 196.443 8.51792C195.681 8.91858 195.219 8.88308 194.436 8.75375C193.739 8.66446 193.03 8.78916 192.405 9.11131C191.58 9.50944 190.881 10.1257 190.119 10.6328C188.85 11.5204 187.326 12.205 185.802 11.9996C184.941 11.8855 184.147 11.4925 183.329 11.2135C182.511 10.9346 181.599 10.7469 180.789 11.0436C179.7 11.4418 179.055 12.588 178.032 13.1357C177.518 13.3769 176.971 13.541 176.409 13.6226C175.7 13.7595 174.949 13.8939 174.278 13.6226C173.516 13.3284 173.029 12.593 172.592 11.9007L171.386 9.98618C171.289 9.98618 171.19 9.98618 171.094 9.98618L172.798 12.6894C173.232 13.3817 173.72 14.1145 174.481 14.4112C175.154 14.6648 175.906 14.538 176.612 14.4112C177.174 14.33 177.721 14.1659 178.235 13.9244C179.25 13.3741 179.903 12.2304 180.995 11.8323C181.81 11.5356 182.719 11.7182 183.535 12.0022C184.35 12.2862 185.15 12.6716 186.008 12.7883C187.532 12.9937 189.055 12.3065 190.325 11.4189C191.087 10.8915 191.78 10.2854 192.611 9.89742C193.235 9.57373 193.944 9.44894 194.642 9.53987C195.424 9.66666 195.886 9.70216 196.646 9.30403C196.963 9.15671 197.229 8.91721 197.408 8.61682Z" fill="black"/>
<path d="M210.537 182.077C210.686 181.843 210.873 181.636 211.09 181.463C212.2 180.418 212.716 178.881 212.99 177.375C213.264 175.869 213.343 174.332 213.782 172.859C214.019 172.103 214.318 171.367 214.676 170.66C214.93 170.118 215.247 169.052 215.715 168.675C215.806 168.595 215.916 168.542 216.035 168.52C216.253 168.053 216.566 167.637 216.954 167.298C217.68 166.641 218.566 166.119 219.051 165.269C219.184 164.974 219.348 164.694 219.542 164.435C219.869 164.072 220.387 163.928 220.689 163.545C221.083 163.053 220.994 162.35 220.943 161.721C220.893 161.092 220.943 160.344 221.487 160.017C221.812 159.817 222.231 159.835 222.569 159.66C223.077 159.406 223.277 158.765 223.267 158.194C223.257 157.623 223.079 157.068 223.033 156.5C222.891 154.684 224.09 152.879 223.625 151.119C223.45 150.452 223.051 149.871 222.754 149.253C222.652 149.045 222.567 148.83 222.5 148.608C221.709 148.922 220.877 149.123 220.029 149.204C221.428 146.07 221.073 142.426 221.726 139.061L221.642 138.944C220.981 138.078 220.607 137.028 220.57 135.939C220.57 134.671 221.157 133.513 221.421 132.288C221.644 131.243 221.637 130.155 221.929 129.131C222.133 128.494 222.403 127.881 222.734 127.3C223.051 126.711 223.384 126.136 223.732 125.568C224.057 124.493 224.383 123.417 224.709 122.342C225.166 120.821 225.636 119.299 226.525 117.996C226.85 117.516 226.949 116.55 227.449 116.261C227.855 116.05 228.317 115.969 228.77 116.03C229.476 115.635 230.096 115.064 230.184 114.283C230.193 114.113 230.176 113.942 230.134 113.776H230.047C228.927 113.672 228.364 112.688 227.782 111.828C226.84 110.431 227.201 108.545 227.782 106.96C227.926 106.459 228.187 105.999 228.544 105.618C229.359 104.857 230.649 105.025 231.701 104.657C232.041 104.508 232.39 104.377 232.744 104.264C233.443 104.099 234.174 104.33 234.814 104.649C235.454 104.969 236.051 105.39 236.721 105.644C237.391 105.897 238.219 106.097 238.384 106.785C238.431 107.016 238.411 107.256 238.326 107.477C238.172 107.917 237.902 108.307 237.544 108.605C237.829 109.193 237.984 109.836 237.996 110.489C238.009 111.142 237.88 111.791 237.617 112.389C237.355 112.988 236.966 113.522 236.477 113.956C235.987 114.39 235.41 114.713 234.783 114.902C234.59 115.209 234.41 115.526 234.245 115.848C233.95 116.416 233.702 117.085 233.801 117.694C233.985 117.887 234.155 118.094 234.309 118.313C235.037 119.327 235.451 120.519 235.832 121.706C236.346 123.22 236.757 124.768 237.061 126.339C237.681 127.652 238.438 128.91 238.887 130.292C239.692 130.294 240.493 130.187 241.269 129.975L243.413 129.488C244.157 129.321 244.936 129.138 245.52 128.646C245.83 128.393 246.071 128.055 246.386 127.802C246.701 127.548 247.333 127.257 247.679 127.465C247.742 127.503 247.801 127.548 247.854 127.599C248.166 126.965 250.165 129.559 248.799 129.815L248.888 130.069C249.068 130.594 249.451 131.233 249.355 131.781L239.817 135.049C239.205 135.297 238.556 135.44 237.897 135.473C237.64 135.471 237.384 135.437 237.135 135.371V135.858V135.876C237.11 139.221 237.643 142.545 237.742 145.887C237.76 146.496 237.742 147.155 237.356 147.632C236.924 148.155 236.157 148.256 235.489 148.139C235.33 148.114 235.172 148.079 235.017 148.035C234.791 148.876 234.628 149.732 234.529 150.597L233.897 155.1C233.815 155.564 233.782 156.035 233.798 156.505C233.872 157.565 234.433 158.519 234.839 159.5C235.246 160.481 235.487 161.655 234.951 162.571C234.786 162.855 234.555 163.098 234.405 163.392C234.215 163.847 234.128 164.338 234.151 164.83C234.112 166.2 234.075 167.567 234.039 168.933C234.15 168.917 234.264 168.941 234.359 168.999C234.888 169.408 234.829 171.365 234.867 171.971C234.908 172.986 234.867 174.02 234.923 175.045C234.992 176.43 235.22 177.802 235.604 179.135C235.695 179.568 235.895 179.97 236.185 180.304C236.482 180.561 236.835 180.744 237.216 180.839C238.482 181.235 239.806 181.415 241.132 181.372C241.668 181.354 242.227 181.303 242.724 181.506C243.222 181.709 243.623 182.267 243.443 182.774C243.288 183.2 242.818 183.403 242.394 183.563C241.425 183.902 240.49 184.332 239.601 184.846C239.258 185.079 238.896 185.284 238.519 185.457C238.159 185.587 237.786 185.679 237.407 185.731L232.907 186.492C231.985 186.651 230.875 186.745 230.289 185.984C229.971 185.574 229.925 185.016 229.941 184.496C229.966 183.481 230.169 182.449 230.035 181.435C229.936 180.834 229.779 180.245 229.565 179.675L228.214 175.689C227.762 174.352 227.305 173.006 227.129 171.606C227.066 171.099 227.071 170.523 227.46 170.206C227.558 170.126 227.672 170.067 227.795 170.034C227.81 168.812 227.97 167.587 227.901 166.364C227.884 166.06 227.853 165.753 227.828 165.449C227.59 165.671 227.379 165.92 227.198 166.19C226.766 166.867 226.606 167.764 225.944 168.218C225.38 168.604 224.544 168.583 224.148 169.141C224.021 169.356 223.925 169.587 223.864 169.828C223.632 170.426 223.287 170.972 222.848 171.439C222.695 171.995 222.485 172.534 222.221 173.046C221.847 173.833 221.474 174.619 221.103 175.405C220.705 176.247 220.303 177.089 219.834 177.885C219.477 178.39 219.191 178.941 218.983 179.523C218.625 180.776 219.206 182.15 220.133 183.073C221.06 183.996 222.277 184.526 223.475 185.021C223.603 185.063 223.72 185.132 223.818 185.224C223.921 185.347 223.976 185.504 223.97 185.665C223.97 186.251 223.49 186.753 222.937 186.933C222.371 187.084 221.778 187.106 221.202 186.996C217.957 186.603 214.722 185.812 211.852 184.237C211.423 184.033 211.042 183.74 210.735 183.377C210.59 183.197 210.496 182.982 210.461 182.754C210.426 182.525 210.452 182.292 210.537 182.077Z" fill="url(#paint1_linear_85_2)"/>
<path d="M224.255 125.21C223.715 126.039 223.207 126.889 222.731 127.761C222.4 128.336 222.13 128.945 221.926 129.577C221.629 130.591 221.639 131.677 221.418 132.711C221.164 133.928 220.57 135.09 220.57 136.335C220.607 137.417 220.982 138.46 221.642 139.32C222.3 140.17 223.051 140.944 223.882 141.627C225.799 136.666 226.87 131.42 227.051 126.105C227.076 125.37 227.079 124.609 226.812 123.924C226.644 123.493 225.855 122.312 225.344 122.776C225.159 122.946 225.111 123.711 224.996 123.965C224.782 124.399 224.534 124.815 224.255 125.21Z" fill="#F86D70"/>
<path opacity="0.1" d="M224.255 125.21C223.715 126.039 223.207 126.889 222.731 127.761C222.4 128.336 222.13 128.945 221.926 129.577C221.629 130.591 221.639 131.677 221.418 132.711C221.164 133.928 220.57 135.09 220.57 136.335C220.607 137.417 220.982 138.46 221.642 139.32C222.3 140.17 223.051 140.944 223.882 141.627C225.799 136.666 226.87 131.42 227.051 126.105C227.076 125.37 227.079 124.609 226.812 123.924C226.644 123.493 225.855 122.312 225.344 122.776C225.159 122.946 225.111 123.711 224.996 123.965C224.782 124.399 224.534 124.815 224.255 125.21Z" fill="black"/>
<path d="M251.516 127.982C252.509 127.817 253.611 127.898 254.383 128.54C254.849 128.935 255.144 129.495 255.206 130.102C255.272 130.807 254.863 131.639 254.157 131.694C253.987 131.696 253.817 131.685 253.649 131.661C253.203 131.659 252.758 131.695 252.318 131.77C251.453 131.851 250.581 131.724 249.775 131.4C248.969 131.075 248.253 130.562 247.686 129.904C247.082 129.158 247.879 128.816 248.598 128.664C249.578 128.456 250.536 128.149 251.516 127.982Z" fill="#FBBEBE"/>
<path d="M234.532 150.886L233.902 155.354C233.821 155.814 233.788 156.282 233.806 156.749C233.879 157.801 234.438 158.747 234.844 159.721C235.251 160.694 235.494 161.858 234.959 162.764C234.794 163.048 234.56 163.286 234.413 163.578C234.223 164.03 234.136 164.518 234.159 165.008L233.986 171.347C232.026 171.48 230.058 171.469 228.1 171.314C228.023 171.321 227.946 171.301 227.881 171.259C227.83 171.193 227.804 171.111 227.808 171.028C227.721 169.544 227.98 168.058 227.896 166.575C227.866 166.032 227.787 165.492 227.78 164.947C227.747 162.738 228.841 160.575 228.511 158.389C228.407 157.839 228.271 157.296 228.105 156.761C227.061 152.957 227.282 148.958 227.51 145.033C227.508 144.97 227.526 144.908 227.561 144.855C227.6 144.818 227.648 144.792 227.701 144.779C228.812 144.447 229.987 144.387 231.126 144.604C232.266 144.821 233.336 145.308 234.248 146.024C234.524 146.248 235.223 146.463 235.406 146.727C235.66 147.1 235.324 147.467 235.18 147.863C234.856 148.844 234.639 149.858 234.532 150.886Z" fill="#3F3D56"/>
<path opacity="0.1" d="M234.532 150.886L233.902 155.354C233.821 155.814 233.788 156.282 233.806 156.749C233.879 157.801 234.438 158.747 234.844 159.721C235.251 160.694 235.494 161.858 234.959 162.764C234.794 163.048 234.56 163.286 234.413 163.578C234.223 164.03 234.136 164.518 234.159 165.008L233.986 171.347C232.026 171.48 230.058 171.469 228.1 171.314C228.023 171.321 227.946 171.301 227.881 171.259C227.83 171.193 227.804 171.111 227.808 171.028C227.721 169.544 227.98 168.058 227.896 166.575C227.866 166.032 227.787 165.492 227.78 164.947C227.747 162.738 228.841 160.575 228.511 158.389C228.407 157.839 228.271 157.296 228.105 156.761C227.061 152.957 227.282 148.958 227.51 145.033C227.508 144.97 227.526 144.908 227.561 144.855C227.6 144.818 227.648 144.792 227.701 144.779C228.812 144.447 229.987 144.387 231.126 144.604C232.266 144.821 233.336 145.308 234.248 146.024C234.524 146.248 235.223 146.463 235.406 146.727C235.66 147.1 235.324 147.467 235.18 147.863C234.856 148.844 234.639 149.858 234.532 150.886Z" fill="black"/>
<path d="M222.757 149.537C223.054 150.153 223.452 150.728 223.628 151.39C224.092 153.137 222.896 154.94 223.038 156.731C223.084 157.296 223.259 157.847 223.272 158.412C223.285 158.978 223.077 159.606 222.574 159.865C222.236 160.04 221.812 160.022 221.494 160.22C220.959 160.545 220.898 161.29 220.951 161.912C221.004 162.533 221.091 163.233 220.697 163.722C220.395 164.1 219.877 164.244 219.552 164.602C219.358 164.86 219.192 165.138 219.059 165.431C218.574 166.276 217.69 166.796 216.964 167.46C216.238 168.124 215.623 169.098 215.948 170.016C216.187 170.693 216.857 171.109 217.502 171.426C218.679 172.007 219.921 172.445 221.202 172.732C221.34 172.773 221.486 172.78 221.626 172.752C221.769 172.699 221.896 172.612 221.997 172.499C222.746 171.766 223.521 170.997 223.866 170.011C223.928 169.771 224.024 169.542 224.151 169.329C224.547 168.776 225.38 168.794 225.946 168.413C226.606 167.965 226.766 167.072 227.198 166.4C227.607 165.766 228.262 165.33 228.722 164.736C229.484 163.753 229.689 162.442 230.245 161.318C230.482 160.839 230.784 160.395 230.972 159.896C231.162 159.301 231.278 158.685 231.32 158.062C231.678 155.1 232.589 152.118 232.015 149.187C231.888 148.54 231.693 147.919 231.612 147.254C231.469 146.103 231.693 144.929 231.523 143.78C231.519 143.637 231.482 143.496 231.416 143.368C231.35 143.241 231.255 143.13 231.139 143.045C231.002 142.984 230.853 142.953 230.703 142.953C229.197 142.875 227.688 142.91 226.187 143.057C225.426 143.131 224.57 143.286 224.115 143.907C223.727 144.437 223.747 145.152 223.607 145.799C223.455 146.592 223.051 147.029 222.627 147.652C222.203 148.276 222.444 148.895 222.757 149.537Z" fill="#3F3D56"/>
<path d="M228.615 170.143C228.214 170.143 227.769 170.12 227.46 170.374C227.074 170.688 227.066 171.269 227.129 171.766C227.307 173.153 227.762 174.489 228.216 175.823L229.567 179.782C229.782 180.346 229.939 180.931 230.037 181.526C230.172 182.541 229.969 183.555 229.943 184.569C229.943 185.077 229.976 185.639 230.294 186.048C230.868 186.783 231.987 186.697 232.909 186.54L237.407 185.779C237.786 185.727 238.159 185.636 238.519 185.508C238.895 185.335 239.256 185.131 239.598 184.899C240.488 184.391 241.423 183.967 242.392 183.631C242.813 183.474 243.286 183.271 243.438 182.848C243.618 182.34 243.217 181.785 242.719 181.58C242.222 181.374 241.665 181.427 241.127 181.445C239.803 181.488 238.481 181.309 237.216 180.915C236.835 180.824 236.481 180.642 236.185 180.385C235.894 180.055 235.693 179.656 235.601 179.226C235.22 177.904 234.992 176.543 234.921 175.169C234.87 174.155 234.905 173.14 234.865 172.126C234.839 171.525 234.898 169.59 234.357 169.177C233.953 168.867 232.29 169.722 231.746 169.846C230.719 170.075 229.667 170.175 228.615 170.143Z" fill="#2F2E41"/>
<path d="M213.797 172.963C213.361 174.418 213.289 175.953 213.008 177.446C212.726 178.94 212.22 180.466 211.111 181.504C210.894 181.674 210.708 181.88 210.559 182.112C210.466 182.329 210.434 182.568 210.468 182.802C210.501 183.036 210.599 183.256 210.75 183.438C211.057 183.799 211.437 184.09 211.865 184.293C214.732 185.855 217.959 186.641 221.213 187.032C221.787 187.141 222.379 187.121 222.944 186.971C223.498 186.783 223.988 186.286 223.978 185.703C223.983 185.544 223.929 185.388 223.826 185.267C223.727 185.176 223.61 185.108 223.483 185.066C222.284 184.574 221.065 184.037 220.141 183.132C219.217 182.226 218.632 180.849 218.991 179.617C219.2 179.04 219.485 178.493 219.839 177.991C220.304 177.194 220.728 176.373 221.108 175.532L222.226 173.191C222.551 172.509 222.884 171.804 222.937 171.046C221.534 171.109 220.133 170.886 218.82 170.389C218.207 170.139 217.636 169.797 217.127 169.375C216.695 169.014 216.301 168.345 215.72 168.814C215.252 169.189 214.958 170.244 214.681 170.782C214.33 171.485 214.035 172.214 213.797 172.963Z" fill="#2F2E41"/>
<path d="M230.167 114.846C230.055 115.817 229.11 116.461 228.209 116.844L233.912 118.665C233.544 117.96 233.844 117.098 234.209 116.383C234.507 115.817 234.847 115.275 235.225 114.76C235.281 114.681 235.345 114.58 235.304 114.491C235.268 114.431 235.211 114.387 235.144 114.367C233.971 113.844 232.762 113.304 231.48 113.114C231.109 113.058 230.408 112.911 230.131 113.289C229.854 113.667 230.228 114.397 230.167 114.846Z" fill="#FBBEBE"/>
<path opacity="0.1" d="M230.167 114.846C230.055 115.817 229.11 116.461 228.209 116.844L233.912 118.665C233.544 117.96 233.844 117.098 234.209 116.383C234.507 115.817 234.847 115.275 235.225 114.76C235.281 114.681 235.345 114.58 235.304 114.491C235.268 114.431 235.211 114.387 235.144 114.367C233.971 113.844 232.762 113.304 231.48 113.114C231.109 113.058 230.408 112.911 230.131 113.289C229.854 113.667 230.228 114.397 230.167 114.846Z" fill="black"/>
<path d="M233.491 115.635C235.962 115.635 237.965 113.634 237.965 111.167C237.965 108.699 235.962 106.698 233.491 106.698C231.02 106.698 229.016 108.699 229.016 111.167C229.016 113.634 231.02 115.635 233.491 115.635Z" fill="#FBBEBE"/>
<path d="M237.356 147.929C236.924 148.436 236.16 148.548 235.492 148.436C233.93 148.182 232.65 147.034 231.124 146.62C229.25 146.113 227.264 146.765 225.497 147.561C223.729 148.357 221.967 149.324 220.032 149.476C221.781 145.581 220.781 140.892 222.452 136.964C222.863 136.005 223.435 135.077 223.526 134.04C223.64 132.749 222.995 131.504 222.896 130.218C222.805 129.075 223.15 127.936 223.478 126.848L224.704 122.829C225.161 121.333 225.631 119.809 226.517 118.518C226.843 118.044 226.944 117.085 227.442 116.796C228.529 116.172 230.177 116.961 231.355 117.004C232.533 117.047 233.608 117.884 234.296 118.83C235.025 119.829 235.439 121.018 235.82 122.195C236.428 123.947 236.882 125.748 237.176 127.579C237.214 127.853 237.247 128.126 237.272 128.403C237.526 131.007 237.155 133.627 237.135 136.241C237.135 136.241 237.135 136.241 237.135 136.261C237.112 139.578 237.643 142.877 237.744 146.194C237.76 146.811 237.744 147.472 237.356 147.929Z" fill="#C74634"/>
<path opacity="0.1" d="M237.135 136.264C236.259 136.043 235.464 135.48 234.786 134.862C234.198 134.338 233.674 133.747 233.227 133.099C232.664 132.215 232.213 131.264 231.883 130.269C230.943 127.628 230.346 124.877 230.106 122.083C230.04 121.323 230.019 120.509 230.474 119.905C230.728 119.578 231.086 119.347 231.489 119.248C231.892 119.15 232.317 119.191 232.693 119.365C233.295 119.659 233.684 120.25 234.042 120.813C234.758 121.936 235.477 123.07 235.936 124.318C236.139 124.87 236.289 125.441 236.487 125.996C236.689 126.544 236.921 127.08 237.183 127.601C237.221 127.875 237.254 128.149 237.28 128.426C237.516 131.017 237.155 133.637 237.135 136.264Z" fill="black"/>
<path d="M230.484 119.413C230.032 120.014 230.052 120.838 230.116 121.591C230.356 124.384 230.953 127.134 231.894 129.775C232.221 130.77 232.672 131.721 233.237 132.605C233.684 133.252 234.207 133.844 234.796 134.367C235.66 135.156 236.711 135.858 237.882 135.868C238.54 135.836 239.189 135.695 239.801 135.45L249.327 132.219C249.423 131.674 249.04 131.043 248.86 130.52L248.352 129.014C248.207 128.601 248.037 128.152 247.661 127.926C247.285 127.7 246.683 128.01 246.368 128.261C246.054 128.512 245.812 128.841 245.505 129.098C244.916 129.584 244.141 129.765 243.397 129.932L241.257 130.414C240.48 130.624 239.679 130.73 238.875 130.728C238.278 128.91 237.143 127.307 236.5 125.502C236.302 124.949 236.15 124.378 235.947 123.826C235.487 122.578 234.768 121.444 234.055 120.321C233.697 119.756 233.308 119.165 232.706 118.873C232.329 118.7 231.904 118.659 231.501 118.757C231.098 118.855 230.739 119.086 230.484 119.413Z" fill="#C74634"/>
<path d="M232.064 112.173C232.098 111.88 232.189 111.597 232.333 111.339C232.408 111.21 232.522 111.107 232.659 111.047C232.796 110.986 232.948 110.97 233.095 111.002C233.542 111.141 233.691 111.834 234.159 111.856C234.474 111.872 234.7 111.552 234.799 111.25C234.898 110.949 234.951 110.611 235.187 110.398C235.351 110.275 235.54 110.188 235.741 110.145C236.825 109.802 237.945 109.168 238.306 108.091C238.389 107.872 238.409 107.635 238.364 107.406C238.199 106.724 237.348 106.518 236.701 106.27C236.053 106.021 235.431 105.605 234.796 105.286C234.161 104.966 233.425 104.738 232.726 104.901C232.372 105.012 232.023 105.142 231.683 105.291C230.631 105.654 229.341 105.486 228.526 106.242C228.171 106.62 227.91 107.076 227.764 107.573C227.193 109.148 226.835 111.022 227.777 112.407C228.356 113.261 228.922 114.238 230.04 114.339C231.34 114.456 231.858 113.269 232.064 112.173Z" fill="#2F2E41"/>
<g opacity="0.1">
<path d="M234.05 110.713C234.149 110.413 234.202 110.074 234.436 109.861C234.6 109.739 234.789 109.652 234.989 109.607C236.076 109.265 237.193 108.633 237.557 107.553C237.639 107.335 237.659 107.097 237.612 106.868C237.588 106.76 237.542 106.658 237.478 106.567C237.892 106.744 238.252 106.985 238.354 107.406C238.399 107.635 238.379 107.872 238.296 108.091C237.935 109.168 236.815 109.802 235.731 110.145C235.53 110.188 235.341 110.275 235.177 110.398C234.941 110.611 234.888 110.951 234.789 111.25C234.69 111.55 234.463 111.872 234.149 111.856C233.834 111.841 233.681 111.555 233.481 111.314C233.758 111.278 233.956 110.989 234.05 110.713Z" fill="black"/>
<path d="M229.296 113.796C230.601 113.915 231.116 112.731 231.327 111.636C231.362 111.343 231.453 111.059 231.596 110.801C231.672 110.672 231.786 110.57 231.923 110.51C232.06 110.45 232.212 110.435 232.358 110.467C232.6 110.54 232.754 110.779 232.919 110.974C232.803 110.985 232.691 111.023 232.591 111.084C232.491 111.146 232.407 111.23 232.346 111.329C232.202 111.587 232.111 111.87 232.076 112.163C231.871 113.259 231.353 114.445 230.045 114.324C229.527 114.269 229.048 114.022 228.704 113.631C228.891 113.718 229.091 113.774 229.296 113.796Z" fill="black"/>
</g>
<path d="M43.3689 164.904L48.2295 162.048C47.5708 160.929 46.7307 159.926 45.7433 159.082L36.5733 161.929L43.7702 157.71C41.9912 156.736 39.989 156.243 37.9609 156.277C35.9327 156.311 33.9484 156.872 32.2033 157.905C30.4582 158.937 29.0124 160.406 28.0082 162.166C27.0041 163.925 26.4761 165.916 26.4764 167.942C26.4764 174.383 31.7052 174.609 38.158 174.609C44.6107 174.609 49.8395 174.383 49.8395 167.942C49.8381 166.311 49.4919 164.698 48.8237 163.21L43.3689 164.904Z" fill="#C74634"/>
<path opacity="0.1" d="M44.6056 171.167C44.0884 170.649 43.5102 170.195 42.8839 169.816C42.0002 169.23 41.0885 168.632 40.0473 168.434C39.1331 168.259 38.191 168.406 37.2539 168.355C35.637 168.256 34.115 167.559 32.9851 166.4C32.3223 165.715 31.7991 164.878 31.0018 164.348C30.1409 163.786 29.0489 163.664 28.028 163.803C27.732 163.847 27.4386 163.907 27.1494 163.983C26.6911 165.253 26.4574 166.592 26.4587 167.942C26.4587 174.383 31.6874 174.609 38.1402 174.609C41.2713 174.609 44.113 174.555 46.2106 173.764L45.8601 173.11C45.5259 172.412 45.1044 171.759 44.6056 171.167Z" fill="black"/>
<path d="M148.294 181.212L141.847 177.426C142.721 175.94 143.836 174.61 145.148 173.49L157.31 177.266L147.779 171.672C150.138 170.381 152.793 169.726 155.482 169.772C158.172 169.817 160.803 170.56 163.117 171.929C165.432 173.298 167.349 175.246 168.681 177.579C170.013 179.913 170.713 182.553 170.713 185.239C170.713 193.782 163.778 194.079 155.222 194.079C146.667 194.079 139.731 193.782 139.731 185.239C139.729 183.077 140.181 180.939 141.059 178.963L148.294 181.212Z" fill="#C74634"/>
<path opacity="0.1" d="M146.651 189.517C147.338 188.83 148.106 188.228 148.937 187.724C150.108 186.948 151.319 186.157 152.698 185.893C153.909 185.662 155.159 185.858 156.39 185.787C158.534 185.655 160.553 184.732 162.053 183.197C162.932 182.287 163.625 181.169 164.684 180.476C165.824 179.716 167.272 179.566 168.625 179.754C169.019 179.809 169.409 179.889 169.794 179.992C170.4 181.675 170.71 183.45 170.708 185.239C170.708 193.782 163.772 194.079 155.217 194.079C151.065 194.079 147.296 194.01 144.513 192.96L144.978 192.093C145.463 191.188 145.956 190.278 146.651 189.517Z" fill="black"/>
</g>
<defs>
<linearGradient id="paint0_linear_85_2" x1="139.124" y1="52.8618" x2="206.193" y2="13.0315" gradientUnits="userSpaceOnUse">
<stop stop-color="#808080" stop-opacity="0.25"/>
<stop offset="0.54" stop-color="#808080" stop-opacity="0.12"/>
<stop offset="1" stop-color="#808080" stop-opacity="0.1"/>
</linearGradient>
<linearGradient id="paint1_linear_85_2" x1="228.443" y1="187.615" x2="231.769" y2="104.34" gradientUnits="userSpaceOnUse">
<stop stop-color="#808080" stop-opacity="0.25"/>
<stop offset="0.54" stop-color="#808080" stop-opacity="0.12"/>
<stop offset="1" stop-color="#808080" stop-opacity="0.1"/>
</linearGradient>
<clipPath id="clip0_85_2">
<rect width="278" height="200" fill="white"/>
</clipPath>
</defs>
</svg>
