<svg width="127" height="100" viewBox="0 0 127 100" fill="none" xmlns="http://www.w3.org/2000/svg">
<g clip-path="url(#clip0_82_134)">
<path d="M91.3711 37.8522V33.3767C91.3711 31.7861 92.0028 30.2607 93.1273 29.136C94.2519 28.0113 95.777 27.3795 97.3673 27.3795C98.9576 27.3795 100.483 28.0113 101.607 29.136C102.732 30.2607 103.363 31.7861 103.363 33.3767V37.8522C103.363 38.0658 103.278 38.2705 103.127 38.4216C102.976 38.5726 102.772 38.6576 102.558 38.6578H92.1766C91.963 38.6576 91.7583 38.5726 91.6073 38.4216C91.4563 38.2705 91.3713 38.0658 91.3711 37.8522Z" fill="#2F2E41"/>
<path d="M106.234 96.096L104.119 96.6814L100.855 88.8012L103.976 87.9372L106.234 96.096Z" fill="#FFB8B8"/>
<path d="M102.441 96.4952L106.52 95.3662L107.23 97.9347L100.584 99.7745C100.49 99.4372 100.464 99.0848 100.507 98.7375C100.55 98.3901 100.661 98.0546 100.833 97.7501C101.006 97.4456 101.236 97.178 101.512 96.9627C101.788 96.7474 102.104 96.5885 102.441 96.4952Z" fill="#2F2E41"/>
<path d="M84.1845 97.7231H81.9901L80.946 89.2575H84.1849L84.1845 97.7231Z" fill="#FFB8B8"/>
<path d="M80.4226 97.0959H84.6546V99.7609H77.758C77.758 99.411 77.8269 99.0644 77.9608 98.7411C78.0947 98.4177 78.291 98.1239 78.5384 97.8765C78.7858 97.629 79.0796 97.4327 79.4029 97.2988C79.7262 97.1648 80.0727 97.0959 80.4226 97.0959Z" fill="#2F2E41"/>
<path d="M81.5384 50.4119C81.695 50.6234 81.8961 50.7979 82.1275 50.9233C82.3589 51.0486 82.6149 51.1217 82.8776 51.1373C83.1402 51.153 83.4032 51.1109 83.6478 51.0139C83.8924 50.9169 84.1128 50.7675 84.2934 50.5762L90.1268 53.2003L89.5962 49.9185L84.1381 47.9297C83.7965 47.6475 83.3634 47.5005 82.9206 47.5163C82.4779 47.5322 82.0564 47.71 81.7359 48.016C81.4155 48.3219 81.2184 48.7348 81.182 49.1764C81.1456 49.618 81.2724 50.0576 81.5384 50.4119Z" fill="#FFB8B8"/>
<path d="M93.6586 70.1469C91.8259 70.1469 89.9286 69.8738 88.3339 69.0617C87.4873 68.6391 86.737 68.0463 86.13 67.3204C85.523 66.5945 85.0723 65.7511 84.8062 64.843C83.9752 62.2115 85.0229 59.6263 86.0361 57.1263C86.6639 55.5771 87.2569 54.1139 87.4108 52.6716L87.4645 52.1595C87.7042 49.8595 87.9111 47.8732 89.057 47.1281C89.651 46.742 90.4495 46.7199 91.4986 47.0607L101.351 50.2618L100.989 68.9677L100.929 68.9877C100.877 69.0051 97.4042 70.1469 93.6586 70.1469Z" fill="#2F2E41"/>
<path d="M91.3263 41.2372C91.3263 41.2372 96.1591 39.805 99.9179 40.342C99.9179 40.342 97.77 52.1574 98.486 56.0959C99.202 60.0344 86.0461 57.6176 88.731 53.8581L89.6259 49.3826C89.6259 49.3826 87.836 47.5924 89.4469 45.4441L91.3263 41.2372Z" fill="#C74634"/>
<path d="M88.9493 69.7922L82.9931 68.6753L85.0726 52.6696C85.2124 52.2227 88.4337 42.0817 89.8967 41.533C90.959 41.1589 92.0453 40.857 93.1483 40.6296L93.3602 40.5872L92.1659 42.3789L87.4111 53.7744L88.9493 69.7922Z" fill="#2F2E41"/>
<path d="M85.8458 95.7616L78.1501 94.4788L82.4689 76.841L88.8952 52.7202L88.9586 53.1485C88.9637 53.1804 89.564 56.3315 98.4721 54.9333L98.5505 54.9211L98.5721 54.9974L109.339 93.0461L100.57 94.5078L92.5721 66.7476L85.8458 95.7616Z" fill="#2F2E41"/>
<path d="M96.5123 72.7875L96.5171 72.6521C96.5225 72.5018 97.052 57.5476 96.8751 51.5335C96.6976 45.4989 98.651 40.2729 98.6708 40.2208L98.6867 40.1789L98.7299 40.1664C101.257 39.4443 103.45 41.5996 103.472 41.6214L103.502 41.6522L102.783 47.5914L105.864 69.1888L96.5123 72.7875Z" fill="#2F2E41"/>
<path d="M96.1352 38.5536C98.5631 38.5536 100.531 36.585 100.531 34.1567C100.531 31.7283 98.5631 29.7597 96.1352 29.7597C93.7072 29.7597 91.739 31.7283 91.739 34.1567C91.739 36.585 93.7072 38.5536 96.1352 38.5536Z" fill="#FFB8B8"/>
<path d="M89.9525 33.7347C89.954 32.477 90.4542 31.2711 91.3434 30.3817C92.2326 29.4924 93.4383 28.9921 94.6958 28.9907H95.5908C96.8484 28.9921 98.054 29.4924 98.9432 30.3817C99.8324 31.2711 100.333 32.477 100.334 33.7347V33.8242H98.4427L97.7976 32.0176L97.6686 33.8242H96.6911L96.3657 32.9127L96.3006 33.8242H89.9525V33.7347Z" fill="#2F2E41"/>
<path d="M95.7025 39.1611C95.6137 39.0408 95.5607 38.8979 95.5495 38.7488C95.5384 38.5998 95.5695 38.4506 95.6394 38.3184C96.5878 36.5142 97.9157 33.1805 96.1532 31.1245L96.0265 30.9768H101.143V38.6604L96.4951 39.4806C96.448 39.489 96.4003 39.4932 96.3525 39.4932C96.2256 39.4932 96.1005 39.4631 95.9875 39.4054C95.8745 39.3476 95.7769 39.2639 95.7025 39.1611Z" fill="#2F2E41"/>
<path d="M75.1011 7.43767C71.5205 4.41586 67.139 2.50007 62.4897 1.92342C57.8404 1.34678 53.1237 2.13414 48.9137 4.1897C44.7036 6.24527 41.1817 9.4804 38.7764 13.5014C36.3712 17.5225 35.1863 22.156 35.366 26.8383C35.5458 31.5206 37.0823 36.0496 39.7887 39.8744C42.4951 43.6992 46.2547 46.6547 50.6099 48.3814C54.9651 50.1081 59.7283 50.5315 64.3197 49.6C68.9111 48.6686 73.1329 46.4224 76.4713 43.135L106.115 68.1527C106.566 68.5341 107.151 68.7207 107.739 68.6714C108.328 68.6221 108.873 68.341 109.254 67.8898C109.635 67.4387 109.822 66.8546 109.772 66.2659C109.723 65.6772 109.442 65.1322 108.991 64.7508L108.988 64.7481L79.3436 39.7303C82.7873 34.787 84.2612 28.7356 83.4764 22.762C82.6916 16.7885 79.7047 11.3234 75.1011 7.43767ZM73.19 37.3212C70.8806 40.0586 67.8115 42.0496 64.3707 43.0424C60.9299 44.0352 57.2721 43.9852 53.8597 42.8988C50.4473 41.8124 47.4337 39.7383 45.1999 36.9389C42.9661 34.1394 41.6124 30.7403 41.3101 27.1714C41.0078 23.6025 41.7704 20.0241 43.5015 16.8887C45.2326 13.7533 47.8544 11.2017 51.0354 9.55657C54.2164 7.91147 57.8137 7.24675 61.3725 7.64646C64.9312 8.04617 68.2915 9.49237 71.0284 11.8022C72.8457 13.3358 74.3431 15.2124 75.4353 17.3249C76.5274 19.4374 77.1928 21.7443 77.3935 24.1139C77.5942 26.4836 77.3263 28.8696 76.6051 31.1357C75.8839 33.4018 74.7234 35.5037 73.19 37.3212Z" fill="#3F3D56"/>
<path opacity="0.3" d="M47.6752 39.4832C44.2017 36.5515 41.9576 32.4205 41.3884 27.9105C40.8192 23.4005 41.9666 18.8413 44.6027 15.1383C44.2566 15.487 43.9219 15.8522 43.5987 16.2339C42.0653 18.0515 40.9049 20.1533 40.1836 22.4194C39.4624 24.6855 39.1945 27.0715 39.3952 29.4412C39.596 31.8109 40.2614 34.1178 41.3535 36.2302C42.4456 38.3427 43.9431 40.2193 45.7603 41.753C47.5776 43.2866 49.6791 44.4472 51.9448 45.1686C54.2105 45.89 56.5961 46.1579 58.9654 45.9572C61.3347 45.7564 63.6412 45.0909 65.7533 43.9986C67.8654 42.9063 69.7417 41.4086 71.2751 39.591C71.5975 39.2088 71.9012 38.8174 72.186 38.4168C68.9798 41.6388 64.6794 43.537 60.1387 43.7346C55.598 43.9321 51.149 42.4146 47.6752 39.4832Z" fill="black"/>
<path d="M97.5466 58.0987C97.8022 58.1612 98.0684 58.1669 98.3265 58.1154C98.5845 58.0639 98.8281 57.9564 99.0401 57.8005C99.2521 57.6446 99.4274 57.4442 99.5536 57.2132C99.6797 56.9823 99.7538 56.7265 99.7704 56.4638L105.934 54.7528L103.428 52.5681L97.9597 54.5279C97.5167 54.5292 97.0895 54.693 96.7592 54.9882C96.4288 55.2835 96.2182 55.6896 96.1673 56.1298C96.1164 56.57 96.2287 57.0135 96.4829 57.3764C96.7371 57.7393 97.1156 57.9963 97.5466 58.0987Z" fill="#FFB8B8"/>
<path d="M100.108 57.1931L99.7332 53.6295L104.881 50.7886L101.525 46.7248L102.073 42.1598L103.436 41.5752L103.479 41.6297C104.122 42.4568 109.762 49.7359 109.762 50.6358C109.762 51.56 108.683 54.2741 107.207 55.0123C105.783 55.7245 100.436 57.1086 100.209 57.1672L100.108 57.1931Z" fill="#2F2E41"/>
<path d="M126.821 100H58.6254C58.578 100 58.5324 99.9811 58.4989 99.9476C58.4653 99.914 58.4464 99.8685 58.4464 99.821C58.4464 99.7735 58.4653 99.728 58.4989 99.6944C58.5324 99.6608 58.578 99.642 58.6254 99.642H126.821C126.868 99.642 126.914 99.6608 126.948 99.6944C126.981 99.728 127 99.7735 127 99.821C127 99.8685 126.981 99.914 126.948 99.9476C126.914 99.9811 126.868 100 126.821 100Z" fill="#CCCCCC"/>
</g>
<defs>
<clipPath id="clip0_82_134">
<rect width="127" height="100" fill="white"/>
</clipPath>
</defs>
</svg>
