<svg width="1024" height="1024" viewBox="0 0 1024 1024" fill="none" xmlns="http://www.w3.org/2000/svg">
<mask id="mask0_69_2" style="mask-type:alpha" maskUnits="userSpaceOnUse" x="92" y="92" width="840" height="840">
<mask id="path-1-inside-1_69_2" fill="white">
<path fill-rule="evenodd" clip-rule="evenodd" d="M932 353.61C932 343.638 932.004 333.665 931.943 323.692C931.893 315.291 931.796 306.892 931.568 298.496C931.074 280.194 929.995 261.735 926.74 243.638C923.439 225.279 918.048 208.193 909.554 191.512C901.203 175.117 890.294 160.114 877.278 147.107C864.265 134.101 849.258 123.199 832.857 114.853C816.159 106.356 799.055 100.968 780.676 97.6679C762.576 94.418 744.112 93.3405 725.811 92.8461C717.408 92.6188 709.005 92.523 700.6 92.471C690.622 92.4098 680.644 92.4149 670.666 92.4149L554.812 92H468.162L354.358 92.4149C344.361 92.4149 334.364 92.4098 324.366 92.471C315.944 92.523 307.526 92.6188 299.106 92.8461C280.762 93.3405 262.257 94.4191 244.114 97.673C225.711 100.972 208.581 106.358 191.86 114.849C175.424 123.196 160.385 134.099 147.345 147.107C134.307 160.113 123.377 175.113 115.011 191.505C106.493 208.194 101.092 225.29 97.7831 243.659C94.5251 261.75 93.4455 280.202 92.9491 298.496C92.7228 306.893 92.6249 315.292 92.5739 323.692C92.5128 333.666 92 346.055 92 356.028L92.0031 468.255L92 555.833L92.5179 670.445C92.5179 680.431 92.5138 690.417 92.5739 700.403C92.6249 708.816 92.7228 717.226 92.9501 725.635C93.4455 743.96 94.5271 762.445 97.7882 780.567C101.096 798.95 106.496 816.061 115.007 832.763C123.374 849.182 134.306 864.204 147.345 877.229C160.384 890.254 175.419 901.17 191.852 909.528C208.583 918.036 225.721 923.432 244.136 926.736C262.27 929.991 280.769 931.07 299.106 931.565C307.526 931.792 315.945 931.889 324.367 931.94C334.365 932.001 344.361 931.997 354.358 931.997L469.191 932H556.056L670.666 931.996C680.644 931.996 690.622 932.001 700.6 931.94C709.005 931.889 717.408 931.792 725.811 931.565C744.12 931.069 762.589 929.989 780.697 926.732C799.065 923.428 816.161 918.034 832.85 909.531C849.254 901.174 864.264 890.256 877.278 877.229C890.292 864.206 901.2 849.186 909.551 832.77C918.05 816.06 923.441 798.941 926.744 780.546C929.996 762.431 931.074 743.953 931.569 725.635C931.796 717.225 931.893 708.815 931.943 700.403C932.005 690.417 932 680.431 932 670.445C932 670.445 931.994 557.857 931.994 555.833V468.164C931.994 466.669 932 353.61 932 353.61"/>
</mask>
<path fill-rule="evenodd" clip-rule="evenodd" d="M932 353.61C932 343.638 932.004 333.665 931.943 323.692C931.893 315.291 931.796 306.892 931.568 298.496C931.074 280.194 929.995 261.735 926.74 243.638C923.439 225.279 918.048 208.193 909.554 191.512C901.203 175.117 890.294 160.114 877.278 147.107C864.265 134.101 849.258 123.199 832.857 114.853C816.159 106.356 799.055 100.968 780.676 97.6679C762.576 94.418 744.112 93.3405 725.811 92.8461C717.408 92.6188 709.005 92.523 700.6 92.471C690.622 92.4098 680.644 92.4149 670.666 92.4149L554.812 92H468.162L354.358 92.4149C344.361 92.4149 334.364 92.4098 324.366 92.471C315.944 92.523 307.526 92.6188 299.106 92.8461C280.762 93.3405 262.257 94.4191 244.114 97.673C225.711 100.972 208.581 106.358 191.86 114.849C175.424 123.196 160.385 134.099 147.345 147.107C134.307 160.113 123.377 175.113 115.011 191.505C106.493 208.194 101.092 225.29 97.7831 243.659C94.5251 261.75 93.4455 280.202 92.9491 298.496C92.7228 306.893 92.6249 315.292 92.5739 323.692C92.5128 333.666 92 346.055 92 356.028L92.0031 468.255L92 555.833L92.5179 670.445C92.5179 680.431 92.5138 690.417 92.5739 700.403C92.6249 708.816 92.7228 717.226 92.9501 725.635C93.4455 743.96 94.5271 762.445 97.7882 780.567C101.096 798.95 106.496 816.061 115.007 832.763C123.374 849.182 134.306 864.204 147.345 877.229C160.384 890.254 175.419 901.17 191.852 909.528C208.583 918.036 225.721 923.432 244.136 926.736C262.27 929.991 280.769 931.07 299.106 931.565C307.526 931.792 315.945 931.889 324.367 931.94C334.365 932.001 344.361 931.997 354.358 931.997L469.191 932H556.056L670.666 931.996C680.644 931.996 690.622 932.001 700.6 931.94C709.005 931.889 717.408 931.792 725.811 931.565C744.12 931.069 762.589 929.989 780.697 926.732C799.065 923.428 816.161 918.034 832.85 909.531C849.254 901.174 864.264 890.256 877.278 877.229C890.292 864.206 901.2 849.186 909.551 832.77C918.05 816.06 923.441 798.941 926.744 780.546C929.996 762.431 931.074 743.953 931.569 725.635C931.796 717.225 931.893 708.815 931.943 700.403C932.005 690.417 932 680.431 932 670.445C932 670.445 931.994 557.857 931.994 555.833V468.164C931.994 466.669 932 353.61 932 353.61" fill="#6F5643"/>
<path d="M931.943 323.692L930.943 323.698L930.943 323.699L931.943 323.692ZM931.568 298.496L930.568 298.522L930.568 298.523L931.568 298.496ZM926.74 243.638L925.756 243.815L925.756 243.815L926.74 243.638ZM909.554 191.512L910.445 191.058L910.445 191.058L909.554 191.512ZM877.278 147.107L876.571 147.815L876.571 147.815L877.278 147.107ZM832.857 114.853L833.311 113.962L833.311 113.962L832.857 114.853ZM780.676 97.6679L780.499 98.6522L780.499 98.6522L780.676 97.6679ZM725.811 92.8461L725.784 93.8457L725.784 93.8457L725.811 92.8461ZM700.6 92.471L700.606 91.471L700.606 91.471L700.6 92.471ZM670.666 92.4149L670.662 93.4149H670.666V92.4149ZM554.812 92L554.816 91H554.812V92ZM468.162 92V91L468.159 91L468.162 92ZM354.358 92.4149V93.4149L354.362 93.4149L354.358 92.4149ZM324.366 92.471L324.36 91.471L324.36 91.471L324.366 92.471ZM299.106 92.8461L299.133 93.8458L299.133 93.8457L299.106 92.8461ZM244.114 97.673L244.291 98.6573L244.291 98.6573L244.114 97.673ZM191.86 114.849L191.408 113.958L191.408 113.958L191.86 114.849ZM147.345 147.107L148.051 147.815L148.051 147.815L147.345 147.107ZM115.011 191.505L115.902 191.96L115.902 191.96L115.011 191.505ZM97.7831 243.659L96.799 243.482L96.7989 243.482L97.7831 243.659ZM92.9491 298.496L91.9494 298.468L91.9494 298.469L92.9491 298.496ZM92.5739 323.692L93.5739 323.699L93.5739 323.698L92.5739 323.692ZM92 356.028L91 356.028L91 356.028L92 356.028ZM92.0031 468.255L93.0031 468.255L93.0031 468.255L92.0031 468.255ZM92 555.833L91 555.833L91 555.838L92 555.833ZM92.5179 670.445H93.5179L93.5179 670.44L92.5179 670.445ZM92.5739 700.403L91.5739 700.41L91.5739 700.41L92.5739 700.403ZM92.9501 725.635L91.9505 725.662L91.9505 725.662L92.9501 725.635ZM97.7882 780.567L98.7724 780.39L98.7724 780.39L97.7882 780.567ZM115.007 832.763L114.116 833.217L114.116 833.217L115.007 832.763ZM191.852 909.528L191.399 910.419L191.399 910.419L191.852 909.528ZM244.136 926.736L244.312 925.751L244.312 925.751L244.136 926.736ZM299.106 931.565L299.133 930.565L299.133 930.565L299.106 931.565ZM324.367 931.94L324.373 930.94L324.373 930.94L324.367 931.94ZM354.358 931.997L354.358 930.997H354.358V931.997ZM469.191 932L469.191 933H469.191V932ZM556.056 932L556.056 933L556.056 933L556.056 932ZM670.666 931.996L670.666 930.996L670.666 930.996L670.666 931.996ZM700.6 931.94L700.594 930.94L700.594 930.94L700.6 931.94ZM725.811 931.565L725.838 932.564L725.838 932.564L725.811 931.565ZM780.697 926.732L780.874 927.716L780.874 927.716L780.697 926.732ZM832.85 909.531L832.396 908.64L832.396 908.64L832.85 909.531ZM877.278 877.229L876.571 876.522L876.571 876.522L877.278 877.229ZM909.551 832.77L910.442 833.224L910.442 833.224L909.551 832.77ZM926.744 780.546L927.728 780.722L927.728 780.722L926.744 780.546ZM931.569 725.635L930.569 725.608L930.569 725.608L931.569 725.635ZM931.943 700.403L930.943 700.397L930.943 700.398L931.943 700.403ZM932 670.445L933 670.445L933 670.445L932 670.445ZM932 353.61H933C933 343.639 933.004 333.663 932.943 323.686L931.943 323.692L930.943 323.699C931.004 333.668 931 343.637 931 353.61H932ZM931.943 323.692L932.943 323.686C932.893 315.282 932.796 306.875 932.567 298.468L931.568 298.496L930.568 298.523C930.796 306.91 930.893 315.301 930.943 323.698L931.943 323.692ZM931.568 298.496L932.567 298.469C932.074 280.15 930.992 261.633 927.724 243.461L926.74 243.638L925.756 243.815C928.997 261.838 930.075 280.237 930.568 298.522L931.568 298.496ZM926.74 243.638L927.724 243.461C924.408 225.018 918.989 207.837 910.445 191.058L909.554 191.512L908.662 191.966C917.107 208.549 922.47 225.54 925.756 243.815L926.74 243.638ZM909.554 191.512L910.445 191.058C902.046 174.569 891.075 159.481 877.985 146.4L877.278 147.107L876.571 147.815C889.513 160.747 900.359 175.665 908.662 191.966L909.554 191.512ZM877.278 147.107L877.985 146.4C864.898 133.319 849.806 122.356 833.311 113.962L832.857 114.853L832.404 115.744C848.711 124.043 863.632 134.882 876.571 147.815L877.278 147.107ZM832.857 114.853L833.311 113.962C816.515 105.415 799.315 99.9986 780.852 96.6837L780.676 97.6679L780.499 98.6522C798.794 101.937 815.804 107.297 832.404 115.744L832.857 114.853ZM780.676 97.6679L780.852 96.6837C762.679 93.4205 744.156 92.3413 725.838 91.8465L725.811 92.8461L725.784 93.8457C744.069 94.3397 762.474 95.4156 780.499 98.6522L780.676 97.6679ZM725.811 92.8461L725.838 91.8465C717.425 91.6189 709.014 91.523 700.606 91.471L700.6 92.471L700.594 93.471C708.996 93.5229 717.391 93.6187 725.784 93.8457L725.811 92.8461ZM700.6 92.471L700.606 91.471C690.624 91.4098 680.643 91.4149 670.666 91.4149V92.4149V93.4149C680.645 93.4149 690.62 93.4098 700.594 93.471L700.6 92.471ZM670.666 92.4149L670.67 91.4149L554.816 91L554.812 92L554.809 93L670.662 93.4149L670.666 92.4149ZM554.812 92V91H468.162V92V93H554.812V92ZM468.162 92L468.159 91L354.355 91.4149L354.358 92.4149L354.362 93.4149L468.166 93L468.162 92ZM354.358 92.4149V91.4149C344.362 91.4149 334.361 91.4098 324.36 91.471L324.366 92.471L324.372 93.471C334.366 93.4098 344.36 93.4149 354.358 93.4149V92.4149ZM324.366 92.471L324.36 91.471C315.935 91.523 307.509 91.6189 299.079 91.8465L299.106 92.8461L299.133 93.8457C307.543 93.6187 315.953 93.5229 324.373 93.471L324.366 92.471ZM299.106 92.8461L299.079 91.8465C280.719 92.3413 262.154 93.4215 243.938 96.6887L244.114 97.673L244.291 98.6573C262.359 95.4167 280.805 94.3397 299.133 93.8458L299.106 92.8461ZM244.114 97.673L243.938 96.6887C225.451 100.003 208.226 105.417 191.408 113.958L191.86 114.849L192.313 115.741C208.936 107.3 225.971 101.941 244.291 98.6573L244.114 97.673ZM191.86 114.849L191.408 113.958C174.878 122.352 159.753 133.317 146.639 146.4L147.345 147.107L148.051 147.815C161.017 134.881 175.971 124.04 192.313 115.741L191.86 114.849ZM147.345 147.107L146.639 146.399C133.526 159.479 122.535 174.564 114.12 191.05L115.011 191.505L115.902 191.96C124.22 175.661 135.087 160.747 148.051 147.815L147.345 147.107ZM115.011 191.505L114.12 191.05C105.552 207.837 100.123 225.029 96.799 243.482L97.7831 243.659L98.7673 243.837C102.061 225.552 107.434 208.55 115.902 191.96L115.011 191.505ZM97.7831 243.659L96.7989 243.482C93.5275 261.647 92.4463 280.159 91.9494 298.468L92.9491 298.496L93.9487 298.523C94.4447 280.246 95.5227 261.853 98.7673 243.836L97.7831 243.659ZM92.9491 298.496L91.9494 298.469C91.7229 306.876 91.6249 315.283 91.5739 323.686L92.5739 323.692L93.5739 323.698C93.6249 315.302 93.7227 306.911 93.9487 298.522L92.9491 298.496ZM92.5739 323.692L91.5739 323.686C91.5434 328.662 91.4002 334.242 91.2643 339.836C91.1285 345.425 91 351.028 91 356.028H92H93C93 351.056 93.1279 345.477 93.2637 339.885C93.3995 334.298 93.5433 328.697 93.5739 323.699L92.5739 323.692ZM92 356.028L91 356.028L91.0031 468.255L92.0031 468.255L93.0031 468.255L93 356.028L92 356.028ZM92.0031 468.255L91.0031 468.255L91 555.833L92 555.833L93 555.833L93.0031 468.255L92.0031 468.255ZM92 555.833L91 555.838L91.5179 670.449L92.5179 670.445L93.5179 670.44L93 555.829L92 555.833ZM92.5179 670.445H91.5179C91.5179 680.43 91.5138 690.42 91.5739 700.41L92.5739 700.403L93.5739 700.397C93.5138 690.415 93.5179 680.432 93.5179 670.445H92.5179ZM92.5739 700.403L91.5739 700.41C91.6249 708.825 91.7229 717.243 91.9505 725.662L92.9501 725.635L93.9497 725.608C93.7227 717.209 93.6249 708.806 93.5739 700.397L92.5739 700.403ZM92.9501 725.635L91.9505 725.662C92.4463 744.004 93.5295 762.548 96.804 780.744L97.7882 780.567L98.7724 780.39C95.5247 762.342 94.4447 743.916 93.9497 725.608L92.9501 725.635ZM97.7882 780.567L96.804 780.744C100.127 799.211 105.555 816.417 114.116 833.217L115.007 832.763L115.898 832.309C107.437 815.705 102.065 798.689 98.7724 780.39L97.7882 780.567ZM115.007 832.763L114.116 833.217C122.531 849.73 133.525 864.837 146.638 877.936L147.345 877.229L148.052 876.522C135.086 863.571 124.217 848.634 115.898 832.309L115.007 832.763ZM147.345 877.229L146.638 877.936C159.751 891.036 174.872 902.014 191.399 910.419L191.852 909.528L192.306 908.637C175.966 900.326 161.017 889.472 148.052 876.522L147.345 877.229ZM191.852 909.528L191.399 910.419C208.227 918.977 225.461 924.401 243.959 927.72L244.136 926.736L244.312 925.751C225.981 922.463 208.938 917.095 192.306 908.637L191.852 909.528ZM244.136 926.736L243.959 927.72C262.168 930.988 280.726 932.07 299.079 932.564L299.106 931.565L299.133 930.565C280.813 930.071 262.372 928.993 244.312 925.751L244.136 926.736ZM299.106 931.565L299.079 932.564C307.509 932.792 315.936 932.889 324.361 932.94L324.367 931.94L324.373 930.94C315.954 930.889 307.543 930.792 299.133 930.565L299.106 931.565ZM324.367 931.94L324.361 932.94C334.362 933.001 344.362 932.997 354.358 932.997V931.997V930.997C344.36 930.997 334.367 931.001 324.373 930.94L324.367 931.94ZM354.358 931.997L354.358 932.997L469.191 933L469.191 932L469.191 931L354.358 930.997L354.358 931.997ZM469.191 932V933H556.056V932V931H469.191V932ZM556.056 932L556.056 933L670.666 932.996L670.666 931.996L670.666 930.996L556.056 931L556.056 932ZM670.666 931.996V932.996C680.643 932.996 690.624 933.001 700.606 932.94L700.6 931.94L700.594 930.94C690.62 931.001 680.645 930.996 670.666 930.996V931.996ZM700.6 931.94L700.606 932.94C709.014 932.889 717.425 932.792 725.838 932.564L725.811 931.565L725.784 930.565C717.391 930.792 708.996 930.889 700.594 930.94L700.6 931.94ZM725.811 931.565L725.838 932.564C744.163 932.068 762.692 930.986 780.874 927.716L780.697 926.732L780.52 925.748C762.487 928.991 744.076 930.07 725.784 930.565L725.811 931.565ZM780.697 926.732L780.874 927.716C799.326 924.397 816.517 918.975 833.304 910.422L832.85 909.531L832.396 908.64C815.805 917.093 798.804 922.459 780.52 925.748L780.697 926.732ZM832.85 909.531L833.304 910.422C849.802 902.017 864.898 891.037 877.985 877.936L877.278 877.229L876.571 876.522C863.631 889.475 848.707 900.331 832.396 908.64L832.85 909.531ZM877.278 877.229L877.985 877.936C891.073 864.839 902.043 849.733 910.442 833.224L909.551 832.77L908.659 832.317C900.356 848.639 889.51 863.573 876.571 876.522L877.278 877.229ZM909.551 832.77L910.442 833.224C918.991 816.415 924.41 799.201 927.728 780.722L926.744 780.546L925.76 780.369C922.472 798.681 917.109 815.705 908.659 832.317L909.551 832.77ZM926.744 780.546L927.728 780.722C930.993 762.533 932.074 743.996 932.568 725.662L931.569 725.635L930.569 725.608C930.075 743.909 928.998 762.328 925.76 780.369L926.744 780.546ZM931.569 725.635L932.568 725.662C932.796 717.242 932.893 708.824 932.943 700.409L931.943 700.403L930.943 700.398C930.893 708.805 930.796 717.208 930.569 725.608L931.569 725.635ZM931.943 700.403L932.943 700.41C933.005 690.42 933 680.43 933 670.445H932H931C931 680.432 931.005 690.415 930.943 700.397L931.943 700.403ZM932 670.445C933 670.445 933 670.444 933 670.444C933 670.443 933 670.441 933 670.44C933 670.436 933 670.431 933 670.424C933 670.411 933 670.39 933 670.363C933 670.309 933 670.228 933 670.122C933 669.909 933 669.593 933 669.18C933 668.355 933 667.144 933 665.603C932.999 662.521 932.999 658.115 932.999 652.821C932.998 642.235 932.998 628.098 932.997 613.898C932.995 585.498 932.994 556.845 932.994 555.833H931.994H930.994C930.994 556.845 930.995 585.498 930.997 613.898C930.998 628.098 930.998 642.235 930.999 652.822C930.999 658.115 930.999 662.521 931 665.603C931 667.145 931 668.355 931 669.18C931 669.593 931 669.909 931 670.122C931 670.229 931 670.309 931 670.363C931 670.39 931 670.411 931 670.425C931 670.431 931 670.437 931 670.44C931 670.442 931 670.443 931 670.444C931 670.445 931 670.445 932 670.445ZM931.994 555.833H932.994V468.164H931.994H930.994V555.833H931.994ZM931.994 468.164H932.994C932.994 467.417 932.995 438.778 932.997 410.327C932.998 396.101 932.998 381.922 932.999 371.299C932.999 365.988 932.999 361.565 933 358.471C933 356.924 933 355.709 933 354.88C933 354.466 933 354.149 933 353.935C933 353.828 933 353.747 933 353.692C933 353.665 933 353.645 933 353.631C933 353.624 933 353.619 933 353.615C933 353.614 933 353.612 933 353.611C933 353.611 933 353.61 932 353.61C931 353.61 931 353.611 931 353.611C931 353.612 931 353.614 931 353.615C931 353.618 931 353.624 931 353.631C931 353.644 931 353.665 931 353.692C931 353.746 931 353.827 931 353.934C931 354.148 931 354.466 931 354.88C931 355.709 931 356.924 931 358.471C930.999 361.565 930.999 365.988 930.999 371.299C930.998 381.922 930.998 396.101 930.997 410.326C930.995 438.778 930.994 467.416 930.994 468.164H931.994Z" fill="#A53A3A" mask="url(#path-1-inside-1_69_2)"/>
</mask>
<g mask="url(#mask0_69_2)">
<g filter="url(#filter0_n_69_2)">
<rect x="-11" y="37" width="1080" height="970" fill="#6F5643"/>
</g>
<g filter="url(#filter1_d_69_2)">
<path d="M735.027 394.825C724.968 395.318 714.498 395.99 704.522 398.333C675.195 352.616 621.146 327.675 567.453 335.349C547.555 303.309 517.104 279.861 480.692 268.802C440.991 256.715 398.961 260.826 362.371 280.423C306.458 310.284 274.815 370.226 280.899 432.429C256.054 441.049 235.032 457.741 220.834 480.339C204.334 506.623 199.044 537.759 205.965 568.004C218.121 621.204 264.674 658.314 319.202 658.314H319.339H408.375C416.131 658.314 422.408 652.038 422.408 644.281C422.408 636.525 416.131 630.248 408.375 630.248H319.326H319.216C277.857 630.248 242.541 602.1 233.318 561.755C222.492 514.394 252.23 467.046 299.592 456.219C306.896 454.548 311.61 447.435 310.281 440.049C300.441 385.506 326.685 331.293 375.581 305.173C405.58 289.18 440.045 285.823 472.538 295.662C505.072 305.543 531.809 327.497 547.829 357.481C550.761 363.004 556.997 365.882 563.177 364.594C611.992 354.042 662.176 377.393 685.5 421.356C688.735 427.4 695.751 430.209 702.274 428.112C712.772 424.645 723.708 422.891 734.753 422.891C734.836 422.891 734.89 422.891 734.973 422.891C792.146 423.001 838.576 469.595 838.466 526.768C838.411 554.464 827.558 580.475 807.933 600.044C788.364 619.532 762.408 630.248 734.753 630.248C734.671 630.248 734.616 630.248 734.534 630.248H713.293C705.536 630.248 699.26 636.525 699.26 644.281C699.26 652.038 705.536 658.314 713.293 658.314H734.507C734.589 658.314 734.699 658.314 734.781 658.314C769.863 658.314 802.89 644.692 827.75 619.915C852.691 595.083 866.45 562.029 866.532 526.823C866.641 454.178 807.659 394.962 735.027 394.825Z" fill="#F8F8FF"/>
<path d="M673.779 488.401C673.647 487.512 673.557 486.645 673.262 485.813C668.456 450.132 611.021 437.05 561.012 437.05C511.281 437.05 454.217 450.012 448.873 485.568C448.456 486.679 448.302 487.839 448.18 489.052C448.151 489.657 447.843 490.14 447.843 490.756C448.035 714.833 448.062 714.887 448.775 716.587C456.737 750.08 511.978 762.002 561.012 762.002C610.045 762.002 665.3 750.08 672.81 718.122C673.62 715.866 673.874 714.788 673.953 637.159C673.971 637.022 674.083 636.883 674.098 636.747C674.174 636.084 673.966 635.431 673.954 634.766C673.973 615.445 673.982 591.686 673.985 561.966C673.999 561.86 674.086 561.754 674.098 561.648C674.157 561.131 673.98 560.62 673.985 560.099C673.987 540.192 673.988 518.062 673.988 492.702C674.019 492.538 674.009 492.367 674.031 492.199L674.071 492.099C674.079 492.031 674.049 491.971 674.055 491.902C674.108 491.401 674.18 490.9 674.18 490.4C674.18 489.677 673.82 489.108 673.779 488.401ZM645.96 631.993C640.227 638.183 611.838 654.616 560.518 654.616C508.228 654.616 480.114 638.132 476.111 633.49C476.082 619.899 476.055 605.407 476.03 590.443C496.064 600.425 525.36 607.584 560.518 607.584C596.133 607.584 625.775 600.304 646.004 590.157C645.987 604.656 645.974 618.808 645.96 631.993ZM646.044 556.809C640.492 562.931 612.07 579.518 560.518 579.518C507.876 579.518 479.684 562.787 475.984 558.278C475.966 544.389 475.948 530.628 475.935 517.354C497.815 526.05 529.395 530.649 560.532 530.649C591.445 530.649 623.763 525.887 646.087 517.013C646.073 529.921 646.061 543.294 646.044 556.809ZM561.011 465.116C606.286 465.116 638.895 475.968 644.869 486.88C635.961 492.428 607.838 502.583 560.532 502.583C512.944 502.583 485.748 492.591 477.118 486.982C482.939 476.036 515.594 465.116 561.011 465.116ZM561.011 733.936C516.103 733.936 482.528 722.891 476.388 710.639C476.316 704.976 476.248 688.267 476.186 665.623C496.218 675.563 525.453 682.683 560.518 682.683C596.089 682.683 625.702 675.421 645.929 665.295C645.91 691.116 645.91 708.756 645.949 710.118C643.209 721.602 608.428 733.936 561.011 733.936Z" fill="#F8F8FF"/>
</g>
</g>
<defs>
<filter id="filter0_n_69_2" x="-11" y="37" width="1080" height="970" filterUnits="userSpaceOnUse" color-interpolation-filters="sRGB">
<feFlood flood-opacity="0" result="BackgroundImageFix"/>
<feBlend mode="normal" in="SourceGraphic" in2="BackgroundImageFix" result="shape"/>
<feTurbulence type="fractalNoise" baseFrequency="1 1" stitchTiles="stitch" numOctaves="3" result="noise" seed="9370" />
<feColorMatrix in="noise" type="luminanceToAlpha" result="alphaNoise" />
<feComponentTransfer in="alphaNoise" result="coloredNoise1">
<feFuncA type="discrete" tableValues="1 1 1 1 1 1 1 1 1 1 1 1 1 1 1 1 1 1 1 1 1 1 1 1 1 1 1 1 1 1 1 1 1 1 1 1 1 1 1 1 1 1 1 1 1 1 1 1 1 1 1 0 0 0 0 0 0 0 0 0 0 0 0 0 0 0 0 0 0 0 0 0 0 0 0 0 0 0 0 0 0 0 0 0 0 0 0 0 0 0 0 0 0 0 0 0 0 0 0 0 "/>
</feComponentTransfer>
<feComposite operator="in" in2="shape" in="coloredNoise1" result="noise1Clipped" />
<feFlood flood-color="rgba(0, 0, 0, 0.25)" result="color1Flood" />
<feComposite operator="in" in2="noise1Clipped" in="color1Flood" result="color1" />
<feMerge result="effect1_noise_69_2">
<feMergeNode in="shape" />
<feMergeNode in="color1" />
</feMerge>
</filter>
<filter id="filter1_d_69_2" x="193" y="262" width="683.533" height="520.002" filterUnits="userSpaceOnUse" color-interpolation-filters="sRGB">
<feFlood flood-opacity="0" result="BackgroundImageFix"/>
<feColorMatrix in="SourceAlpha" type="matrix" values="0 0 0 0 0 0 0 0 0 0 0 0 0 0 0 0 0 0 127 0" result="hardAlpha"/>
<feOffset dy="10"/>
<feGaussianBlur stdDeviation="5"/>
<feComposite in2="hardAlpha" operator="out"/>
<feColorMatrix type="matrix" values="0 0 0 0 0 0 0 0 0 0 0 0 0 0 0 0 0 0 0.5 0"/>
<feBlend mode="normal" in2="BackgroundImageFix" result="effect1_dropShadow_69_2"/>
<feBlend mode="normal" in="SourceGraphic" in2="effect1_dropShadow_69_2" result="shape"/>
</filter>
</defs>
</svg>
