<svg width="40" height="40" viewBox="0 0 40 40" fill="none" xmlns="http://www.w3.org/2000/svg">
<path d="M23.3333 4.16659V7.99997C23.3333 9.8668 23.3333 10.8002 23.6966 11.5133C24.0161 12.1405 24.5261 12.6504 25.1533 12.97C25.8663 13.3333 26.7998 13.3333 28.6666 13.3333H32.5M33.3333 17.1894V23.3333C33.3333 28.0004 33.3333 30.3339 32.425 32.1166C31.6261 33.6846 30.3513 34.9594 28.7833 35.7583C27.0006 36.6666 24.6671 36.6666 20 36.6666C15.3329 36.6666 12.9993 36.6666 11.2167 35.7583C9.64869 34.9594 8.37384 33.6846 7.57491 32.1166C6.66663 30.3339 6.66663 28.0004 6.66663 23.3333V16.2969C6.66663 11.9782 6.66663 9.81885 7.44761 8.1443C8.27556 6.36904 9.70241 4.94219 11.4777 4.11424C13.1522 3.33325 15.3116 3.33325 19.6303 3.33325C21.5175 3.33325 22.461 3.33325 23.3521 3.53084C24.301 3.74124 25.2058 4.116 26.0255 4.63819C26.7953 5.1286 27.4625 5.7958 28.797 7.1302L29.4281 7.76133C30.8693 9.2026 31.59 9.92324 32.1053 10.7642C32.5621 11.5098 32.899 12.3227 33.103 13.173C33.3333 14.1321 33.3333 15.1512 33.3333 17.1894Z" fill="url(#paint0_linear_46_2)" fill-opacity="0.8"/>
<path d="M23.3333 4.16659V7.99997C23.3333 9.8668 23.3333 10.8002 23.6966 11.5133C24.0161 12.1405 24.5261 12.6504 25.1533 12.97C25.8663 13.3333 26.7998 13.3333 28.6666 13.3333H32.5M33.3333 17.1894V23.3333C33.3333 28.0004 33.3333 30.3339 32.425 32.1166C31.6261 33.6846 30.3513 34.9594 28.7833 35.7583C27.0006 36.6666 24.6671 36.6666 20 36.6666C15.3329 36.6666 12.9993 36.6666 11.2167 35.7583C9.64869 34.9594 8.37384 33.6846 7.57491 32.1166C6.66663 30.3339 6.66663 28.0004 6.66663 23.3333V16.2969C6.66663 11.9782 6.66663 9.81885 7.44761 8.1443C8.27556 6.36904 9.70241 4.94219 11.4777 4.11424C13.1522 3.33325 15.3116 3.33325 19.6303 3.33325C21.5175 3.33325 22.461 3.33325 23.3521 3.53084C24.301 3.74124 25.2058 4.116 26.0255 4.63819C26.7953 5.1286 27.4625 5.7958 28.797 7.1302L29.4281 7.76133C30.8693 9.2026 31.59 9.92324 32.1053 10.7642C32.5621 11.5098 32.899 12.3227 33.103 13.173C33.3333 14.1321 33.3333 15.1512 33.3333 17.1894Z" stroke="url(#paint1_linear_46_2)" stroke-width="1.5" stroke-linecap="round" stroke-linejoin="round"/>
<defs>
<linearGradient id="paint0_linear_46_2" x1="20" y1="3.33325" x2="20" y2="36.6666" gradientUnits="userSpaceOnUse">
<stop stop-color="#C74634" stop-opacity="0.4"/>
<stop offset="1" stop-color="#C74634" stop-opacity="0.8"/>
</linearGradient>
<linearGradient id="paint1_linear_46_2" x1="20" y1="3.33325" x2="20" y2="36.6666" gradientUnits="userSpaceOnUse">
<stop stop-color="#C74634" stop-opacity="0.6"/>
<stop offset="1" stop-color="#C74634"/>
</linearGradient>
</defs>
</svg>
