<svg width="70" height="70" viewBox="0 0 70 70" fill="none" xmlns="http://www.w3.org/2000/svg">
<path opacity="0.12" fill-rule="evenodd" clip-rule="evenodd" d="M34.6631 10.9927C33.7266 9.11984 33.2585 8.18342 32.5599 7.49926C31.9422 6.89425 31.1975 6.43412 30.3803 6.15219C29.456 5.83337 28.409 5.83337 26.315 5.83337H24.5C17.9661 5.83337 14.6991 5.83337 12.2035 7.10495C10.0082 8.22349 8.22346 10.0083 7.10492 12.2035C5.83334 14.6991 5.83334 17.9661 5.83334 24.5V45.5C5.83334 52.034 5.83334 55.3009 7.10492 57.7967C8.22346 59.9918 10.0082 61.7765 12.2035 62.895C14.6991 64.1667 17.9661 64.1667 24.5 64.1667H45.5C52.0339 64.1667 55.3009 64.1667 57.7967 62.895C59.9918 61.7765 61.7765 59.9918 62.895 57.7967C64.1667 55.3009 64.1667 52.034 64.1667 45.5V36.1667C64.1667 29.6328 64.1667 26.3658 62.895 23.8702C61.7765 21.6749 59.9918 19.8902 57.7967 18.7716C55.3009 17.5 52.0339 17.5 45.5 17.5H43.685C41.5911 17.5 40.544 17.5 39.6197 17.1812C38.8025 16.8993 38.0578 16.4392 37.4401 15.8342C36.7416 15.15 36.2734 14.2136 35.3369 12.3407L34.6631 10.9927ZM29.1667 49.5834C24.3342 49.5834 20.4167 45.666 20.4167 40.8334C20.4167 36.0007 24.3342 32.0834 29.1667 32.0834C32.135 32.0834 34.7579 33.5615 36.3402 35.8217C37.2695 37.1493 39.2128 37.9167 40.8333 37.9167C44.0551 37.9167 46.6667 40.5283 46.6667 43.75C46.6667 46.9718 44.0551 49.5834 40.8333 49.5834H29.1667Z" fill="#C74634"/>
<path d="M5.83334 19.8334C5.83334 14.9329 5.83334 12.4827 6.78704 10.611C7.62593 8.96453 8.9645 7.62596 10.6109 6.78707C12.4826 5.83337 14.9329 5.83337 19.8333 5.83337H24.2571C26.5952 5.83337 27.7642 5.83337 28.8197 6.10013C30.5641 6.54102 32.13 7.50882 33.3043 8.87178C34.0151 9.69653 34.5377 10.7421 35.5833 12.8334C36.2804 14.2275 36.629 14.9246 37.1026 15.4744C37.8858 16.3831 38.9296 17.0283 40.0925 17.3222C40.796 17.5 41.5753 17.5 43.1343 17.5H45.5C52.0339 17.5 55.3009 17.5 57.7967 18.7716C59.9918 19.8902 61.7765 21.6749 62.895 23.8702C64.1667 26.3658 64.1667 29.6328 64.1667 36.1667V45.5C64.1667 52.034 64.1667 55.3009 62.895 57.7967C61.7765 59.9918 59.9918 61.7765 57.7967 62.895C55.3009 64.1667 52.0339 64.1667 45.5 64.1667H24.5C17.9661 64.1667 14.6991 64.1667 12.2035 62.895C10.0082 61.7765 8.22346 59.9918 7.10492 57.7967C5.83334 55.3009 5.83334 52.034 5.83334 45.5V19.8334Z" stroke="#C74634" stroke-width="1.5" stroke-linecap="round" stroke-linejoin="round"/>
<path d="M20.4167 40.8334C20.4167 45.666 24.3342 49.5834 29.1667 49.5834H40.8333C44.0551 49.5834 46.6667 46.9718 46.6667 43.75C46.6667 40.5283 44.0551 37.9167 40.8333 37.9167C39.2128 37.9167 37.2694 37.1493 36.3402 35.8217C34.7579 33.5615 32.1349 32.0834 29.1667 32.0834C24.3342 32.0834 20.4167 36.0007 20.4167 40.8334Z" fill="white" stroke="#C74634" stroke-width="1.5" stroke-linecap="round" stroke-linejoin="round"/>
</svg>
