<svg width="40" height="40" viewBox="0 0 40 40" fill="none" xmlns="http://www.w3.org/2000/svg">
<path d="M24.9996 36.6658H11.3329C8.53262 36.6658 7.13249 36.6658 6.06292 36.1208C5.12212 35.6415 4.35722 34.8767 3.87785 33.9358C3.33289 32.8662 3.33289 31.4662 3.33289 28.6658V11.3325C3.33289 8.53225 3.33289 7.13214 3.87785 6.06257C4.35722 5.12175 5.12212 4.35685 6.06292 3.87749C7.13249 3.33252 8.53262 3.33252 11.3329 3.33252H12.9394C13.5541 3.33252 13.8615 3.33252 14.145 3.365C15.6245 3.53445 16.9515 4.35457 17.7646 5.60207C17.9206 5.84117 18.058 6.11607 18.333 6.66585C18.6078 7.21565 18.7453 7.49054 18.9011 7.72964C19.7143 8.97715 21.0413 9.79725 22.5208 9.9667C22.8043 9.99919 23.1116 9.99919 23.7263 9.99919H26.6658C28.2161 9.99919 28.9913 9.99919 29.6273 10.1696C31.3525 10.632 32.7001 11.9796 33.1625 13.7048C33.333 14.3408 33.333 15.1159 33.333 16.6663M9.99955 36.6667L12.2188 23.3515C12.6146 20.9765 12.8125 19.7892 13.4051 18.898C13.9274 18.1125 14.6613 17.4908 15.522 17.1047C16.4984 16.6667 17.7023 16.6667 20.11 16.6667H32.0371C34.2031 16.6667 35.2861 16.6667 36.0566 17.1085C36.7326 17.4963 37.2515 18.1088 37.5228 18.8393C37.832 19.672 37.654 20.7402 37.2978 22.8768L36.1136 29.9818C35.7178 32.3568 35.52 33.5442 34.9275 34.4353C34.405 35.2208 33.6711 35.8425 32.8105 36.2287C31.8341 36.6667 30.6303 36.6667 28.2225 36.6667H9.99955Z" fill="url(#paint0_linear_46_4)"/>
<path d="M24.9996 36.6658H11.3329C8.53262 36.6658 7.13249 36.6658 6.06292 36.1208C5.12212 35.6415 4.35722 34.8767 3.87785 33.9358C3.33289 32.8662 3.33289 31.4662 3.33289 28.6658V11.3325C3.33289 8.53225 3.33289 7.13214 3.87785 6.06257C4.35722 5.12175 5.12212 4.35685 6.06292 3.87749C7.13249 3.33252 8.53262 3.33252 11.3329 3.33252H12.9394C13.5541 3.33252 13.8615 3.33252 14.145 3.365C15.6245 3.53445 16.9515 4.35457 17.7646 5.60207C17.9206 5.84117 18.058 6.11607 18.333 6.66585C18.6078 7.21565 18.7453 7.49054 18.9011 7.72964C19.7143 8.97715 21.0413 9.79725 22.5208 9.9667C22.8043 9.99919 23.1116 9.99919 23.7263 9.99919H26.6658C28.2161 9.99919 28.9913 9.99919 29.6273 10.1696C31.3525 10.632 32.7001 11.9796 33.1625 13.7048C33.333 14.3408 33.333 15.1159 33.333 16.6663M9.99955 36.6667L12.2188 23.3515C12.6146 20.9765 12.8125 19.7892 13.4051 18.898C13.9274 18.1125 14.6613 17.4908 15.522 17.1047C16.4984 16.6667 17.7023 16.6667 20.11 16.6667H32.0371C34.2031 16.6667 35.2861 16.6667 36.0566 17.1085C36.7326 17.4963 37.2515 18.1088 37.5228 18.8393C37.832 19.672 37.654 20.7402 37.2978 22.8768L36.1136 29.9818C35.7178 32.3568 35.52 33.5442 34.9275 34.4353C34.405 35.2208 33.6711 35.8425 32.8105 36.2287C31.8341 36.6667 30.6303 36.6667 28.2225 36.6667H9.99955Z" stroke="url(#paint1_linear_46_4)" stroke-width="1.5" stroke-linecap="round" stroke-linejoin="round"/>
<defs>
<linearGradient id="paint0_linear_46_4" x1="20.5073" y1="3.33252" x2="20.5073" y2="36.6667" gradientUnits="userSpaceOnUse">
<stop stop-color="#C74634" stop-opacity="0.3"/>
<stop offset="1" stop-color="#C74634" stop-opacity="0.7"/>
</linearGradient>
<linearGradient id="paint1_linear_46_4" x1="20.5073" y1="3.33252" x2="20.5073" y2="36.6667" gradientUnits="userSpaceOnUse">
<stop stop-color="#C74634" stop-opacity="0.6"/>
<stop offset="1" stop-color="#C74634"/>
</linearGradient>
</defs>
</svg>
