<svg width="18" height="18" viewBox="0 0 18 18" fill="none" xmlns="http://www.w3.org/2000/svg">
<g clip-path="url(#clip0_62_10)">
<path d="M18.036 4.086C18.0322 4.059 18.03 4.03275 18.0202 4.0065C18.0105 3.98025 17.994 3.95775 17.979 3.9345C17.9692 3.92025 17.9655 3.90375 17.9535 3.89025L14.6962 0.168747C14.625 0.0869968 14.523 0.0404968 14.4142 0.0404968H3.65325C3.54525 0.0404968 3.4425 0.0869968 3.37125 0.168747L0.113246 3.891C0.101246 3.90525 0.0967461 3.9225 0.0869961 3.9375C0.0719961 3.96 0.0569961 3.98175 0.0472461 4.00725C0.0374961 4.03275 0.0352461 4.059 0.0314961 4.08525C0.0292461 4.10325 0.0209961 4.119 0.0209961 4.13775V16.2495C0.0209961 17.2395 0.815246 18.045 1.79175 18.045H16.275C17.2515 18.045 18.0457 17.2395 18.0457 16.2495V4.13775C18.0465 4.11975 18.0382 4.104 18.036 4.086ZM5.8575 12.7635H0.770996V9.0135H5.4825V10.3687C5.4825 11.2785 6.21675 12.0187 7.11975 12.0187H10.9477C11.85 12.0187 12.585 11.2785 12.585 10.3687V9.0135H17.2965V12.7635H12.21C12.003 12.7635 11.835 12.9315 11.835 13.1385V14.8695C11.835 15.366 11.4375 15.7695 10.9477 15.7695H7.11975C6.63075 15.7695 6.2325 15.366 6.2325 14.8695V13.1385C6.2325 12.9315 6.0645 12.7635 5.8575 12.7635ZM7.11975 7.54125H10.9477C11.85 7.54125 12.585 6.7965 12.585 5.8815V4.51275H17.2965V8.26275H12.21C12.003 8.26275 11.835 8.43075 11.835 8.63775V10.368C11.835 10.8645 11.4375 11.268 10.9477 11.268H7.11975C6.63075 11.268 6.2325 10.8645 6.2325 10.368V8.63775C6.2325 8.43075 6.0645 8.26275 5.8575 8.26275H0.770996V4.51275H5.4825V5.8815C5.4825 6.7965 6.21675 7.54125 7.11975 7.54125ZM3.8235 0.791247H14.2447L16.8457 3.76275H12.21C12.003 3.76275 11.835 3.93075 11.835 4.13775V5.8815C11.835 6.38325 11.4375 6.79125 10.9477 6.79125H7.11975C6.63075 6.79125 6.2325 6.38325 6.2325 5.8815V4.13775C6.2325 3.93075 6.0645 3.76275 5.8575 3.76275H1.2225L3.8235 0.791247ZM16.275 17.2957H1.79175C1.22925 17.2957 0.770996 16.8262 0.770996 16.2495V13.5135H5.4825V14.8695C5.4825 15.7792 6.21675 16.5195 7.11975 16.5195H10.9477C11.85 16.5195 12.585 15.7792 12.585 14.8695V13.5135H17.2965V16.2495C17.2965 16.8262 16.8382 17.2957 16.275 17.2957Z" fill="#6F5643" stroke="#6F5643" stroke-width="0.6"/>
</g>
<defs>
<clipPath id="clip0_62_10">
<rect width="18" height="18" fill="white"/>
</clipPath>
</defs>
</svg>
